<svg width="100" height="100" viewBox="0 0 100 100" fill="none" xmlns="http://www.w3.org/2000/svg">
<path d="M100 50C100 77.6142 77.6142 100 50 100C22.3858 100 0 77.6142 0 50C0 22.3858 22.3858 0 50 0C77.6142 0 100 22.3858 100 50ZM9.70949 50C9.70949 72.2518 27.7482 90.2905 50 90.2905C72.2518 90.2905 90.2905 72.2518 90.2905 50C90.2905 27.7482 72.2518 9.70949 50 9.70949C27.7482 9.70949 9.70949 27.7482 9.70949 50Z" fill="#E0E0E0"/>
<path d="M50 4.85474C50 2.17354 52.1788 -0.0244526 54.8474 0.235438C65.0023 1.22442 74.6552 5.30317 82.4724 11.9797C91.5252 19.7115 97.522 30.4197 99.3844 42.1783C101.247 53.9369 98.8524 65.9741 92.632 76.1249C86.4116 86.2757 76.7733 93.8739 65.4508 97.5528C54.1284 101.232 41.8647 100.75 30.8658 96.194C19.8669 91.6381 10.8545 83.3071 5.44967 72.6995C0.0448419 62.0919 -1.3977 49.9039 1.38151 38.3277C3.78141 28.3314 9.1933 19.3579 16.8275 12.5888C18.8337 10.81 21.8883 11.3076 23.4643 13.4767C25.0403 15.6458 24.5352 18.6621 22.5713 20.4874C16.7875 25.8626 12.6826 32.8474 10.8227 40.5944C8.58321 49.9226 9.74562 59.7438 14.1009 68.2915C18.4561 76.8392 25.7184 83.5524 34.5815 87.2236C43.4445 90.8948 53.3267 91.283 62.4504 88.3186C71.5742 85.3541 79.3408 79.2314 84.3533 71.0517C89.3658 62.8721 91.2952 53.1724 89.7945 43.6972C88.2937 34.222 83.4614 25.5932 76.1666 19.3629C70.1083 14.1886 62.6819 10.9506 54.8432 10.0016C52.1815 9.67929 50 7.53594 50 4.85474Z" fill="#FF9900"/>
</svg>
