<svg width="19" height="22" viewBox="0 0 19 22" fill="none" xmlns="http://www.w3.org/2000/svg">
<path d="M9.5 18.6667L14.6563 13.8137C15.6759 12.8539 16.3703 11.6311 16.6516 10.2999C16.9329 8.96865 16.7885 7.58882 16.2366 6.33486C15.6846 5.08089 14.7501 4.00912 13.551 3.25506C12.3519 2.50101 10.9421 2.09853 9.5 2.09853C8.05788 2.09853 6.64814 2.50101 5.44905 3.25506C4.24996 4.00912 3.31536 5.08089 2.76345 6.33486C2.21154 7.58882 2.0671 8.96865 2.34839 10.2999C2.62968 11.6311 3.32407 12.8539 4.34375 13.8137L9.5 18.6667ZM9.5 21.4392L2.87084 15.2C1.55973 13.966 0.666861 12.3938 0.305134 10.6822C-0.0565933 8.97061 0.12907 7.1965 0.838645 5.58421C1.54822 3.97193 2.74984 2.59389 4.29154 1.62435C5.83325 0.654817 7.64581 0.137329 9.5 0.137329C11.3542 0.137329 13.1668 0.654817 14.7085 1.62435C16.2502 2.59389 17.4518 3.97193 18.1614 5.58421C18.8709 7.1965 19.0566 8.97061 18.6949 10.6822C18.3331 12.3938 17.4403 13.966 16.1292 15.2L9.5 21.4392ZM9.5 10.9216C10.0525 10.9216 10.5824 10.715 10.9731 10.3473C11.3638 9.97955 11.5833 9.48081 11.5833 8.96078C11.5833 8.44075 11.3638 7.94202 10.9731 7.5743C10.5824 7.20658 10.0525 7 9.5 7C8.94747 7 8.41757 7.20658 8.02687 7.5743C7.63616 7.94202 7.41667 8.44075 7.41667 8.96078C7.41667 9.48081 7.63616 9.97955 8.02687 10.3473C8.41757 10.715 8.94747 10.9216 9.5 10.9216ZM9.5 12.8823C8.39493 12.8823 7.33513 12.4692 6.55373 11.7337C5.77232 10.9983 5.33334 10.0008 5.33334 8.96078C5.33334 7.92072 5.77232 6.92325 6.55373 6.18781C7.33513 5.45238 8.39493 5.03921 9.5 5.03921C10.6051 5.03921 11.6649 5.45238 12.4463 6.18781C13.2277 6.92325 13.6667 7.92072 13.6667 8.96078C13.6667 10.0008 13.2277 10.9983 12.4463 11.7337C11.6649 12.4692 10.6051 12.8823 9.5 12.8823Z" fill="#212121"/>
</svg>
