<svg width="301" height="70" viewBox="0 0 301 70" fill="none" xmlns="http://www.w3.org/2000/svg">
<path d="M101.096 6.824V10.312H94.2801V29H90.2161V10.312H83.4001V6.824H101.096Z" fill="#FF9900"/>
<path d="M110.859 29.256C109.686 29.256 108.502 29.2133 107.307 29.128C106.113 29.064 105.067 28.9147 104.171 28.68V7.144C104.641 7.05867 105.142 6.984 105.675 6.92C106.209 6.83467 106.753 6.77067 107.307 6.728C107.862 6.68533 108.406 6.65333 108.939 6.632C109.494 6.61067 110.017 6.6 110.507 6.6C111.851 6.6 113.099 6.70667 114.251 6.92C115.403 7.112 116.395 7.44267 117.227 7.912C118.081 8.38133 118.742 9 119.211 9.768C119.681 10.536 119.915 11.4853 119.915 12.616C119.915 13.6613 119.659 14.5573 119.147 15.304C118.657 16.0507 117.963 16.648 117.067 17.096C118.411 17.544 119.403 18.2053 120.043 19.08C120.683 19.9547 121.003 21.064 121.003 22.408C121.003 24.6907 120.171 26.408 118.507 27.56C116.843 28.6907 114.294 29.256 110.859 29.256ZM108.139 19.016V25.768C108.587 25.8107 109.067 25.8427 109.579 25.864C110.091 25.8853 110.561 25.896 110.987 25.896C111.819 25.896 112.587 25.8427 113.291 25.736C114.017 25.6293 114.635 25.448 115.147 25.192C115.681 24.9147 116.097 24.552 116.395 24.104C116.715 23.656 116.875 23.08 116.875 22.376C116.875 21.1173 116.417 20.2427 115.499 19.752C114.582 19.2613 113.313 19.016 111.691 19.016H108.139ZM108.139 15.848H110.987C112.523 15.848 113.729 15.6347 114.603 15.208C115.478 14.76 115.915 13.9707 115.915 12.84C115.915 11.7733 115.457 11.016 114.539 10.568C113.643 10.12 112.47 9.896 111.019 9.896C110.401 9.896 109.846 9.90667 109.355 9.928C108.886 9.94933 108.481 9.98133 108.139 10.024V15.848ZM128.499 17.896C128.499 19.112 128.648 20.2213 128.947 21.224C129.245 22.2053 129.672 23.048 130.227 23.752C130.803 24.4347 131.496 24.968 132.307 25.352C133.117 25.736 134.035 25.928 135.059 25.928C136.061 25.928 136.968 25.736 137.779 25.352C138.589 24.968 139.272 24.4347 139.827 23.752C140.403 23.048 140.84 22.2053 141.139 21.224C141.437 20.2213 141.587 19.112 141.587 17.896C141.587 16.68 141.437 15.5813 141.139 14.6C140.84 13.5973 140.403 12.7547 139.827 12.072C139.272 11.368 138.589 10.824 137.779 10.44C136.968 10.056 136.061 9.864 135.059 9.864C134.035 9.864 133.117 10.056 132.307 10.44C131.496 10.824 130.803 11.368 130.227 12.072C129.672 12.776 129.245 13.6187 128.947 14.6C128.648 15.5813 128.499 16.68 128.499 17.896ZM145.811 17.896C145.811 19.7947 145.523 21.4693 144.947 22.92C144.392 24.3707 143.624 25.5867 142.643 26.568C141.683 27.528 140.552 28.2533 139.251 28.744C137.949 29.2347 136.563 29.48 135.091 29.48C133.619 29.48 132.221 29.2347 130.899 28.744C129.597 28.2533 128.456 27.528 127.475 26.568C126.515 25.5867 125.747 24.3707 125.171 22.92C124.595 21.4693 124.307 19.7947 124.307 17.896C124.307 15.9973 124.595 14.3333 125.171 12.904C125.747 11.4533 126.525 10.2373 127.507 9.256C128.509 8.27467 129.661 7.53867 130.963 7.048C132.264 6.55733 133.64 6.312 135.091 6.312C136.541 6.312 137.917 6.55733 139.219 7.048C140.52 7.53867 141.651 8.27467 142.611 9.256C143.592 10.2373 144.371 11.4533 144.947 12.904C145.523 14.3333 145.811 15.9973 145.811 17.896ZM150.234 29V6.824H164.474V10.248H154.266V15.72H163.354V19.08H154.266V25.576H165.242V29H150.234ZM153.978 4.456C153.402 4.456 152.901 4.264 152.474 3.88C152.047 3.496 151.834 2.97333 151.834 2.312C151.834 1.65066 152.047 1.128 152.474 0.743999C152.901 0.338665 153.402 0.135998 153.978 0.135998C154.554 0.135998 155.055 0.338665 155.482 0.743999C155.93 1.128 156.154 1.65066 156.154 2.312C156.154 2.97333 155.93 3.496 155.482 3.88C155.055 4.264 154.554 4.456 153.978 4.456ZM160.602 4.456C160.026 4.456 159.514 4.264 159.066 3.88C158.639 3.496 158.426 2.97333 158.426 2.312C158.426 1.65066 158.639 1.128 159.066 0.743999C159.514 0.338665 160.026 0.135998 160.602 0.135998C161.178 0.135998 161.679 0.338665 162.106 0.743999C162.533 1.128 162.746 1.65066 162.746 2.312C162.746 2.97333 162.533 3.496 162.106 3.88C161.679 4.264 161.178 4.456 160.602 4.456ZM88.9361 50.896C88.9361 52.112 89.0855 53.2213 89.3841 54.224C89.6828 55.2053 90.1095 56.048 90.6641 56.752C91.2401 57.4347 91.9335 57.968 92.7441 58.352C93.5548 58.736 94.4721 58.928 95.4961 58.928C96.4988 58.928 97.4055 58.736 98.2161 58.352C99.0268 57.968 99.7095 57.4347 100.264 56.752C100.84 56.048 101.277 55.2053 101.576 54.224C101.875 53.2213 102.024 52.112 102.024 50.896C102.024 49.68 101.875 48.5813 101.576 47.6C101.277 46.5973 100.84 45.7547 100.264 45.072C99.7095 44.368 99.0268 43.824 98.2161 43.44C97.4055 43.056 96.4988 42.864 95.4961 42.864C94.4721 42.864 93.5548 43.056 92.7441 43.44C91.9335 43.824 91.2401 44.368 90.6641 45.072C90.1095 45.776 89.6828 46.6187 89.3841 47.6C89.0855 48.5813 88.9361 49.68 88.9361 50.896ZM106.248 50.896C106.248 52.7947 105.96 54.4693 105.384 55.92C104.829 57.3707 104.061 58.5867 103.08 59.568C102.12 60.528 100.989 61.2533 99.6881 61.744C98.3868 62.2347 97.0001 62.48 95.5281 62.48C94.0561 62.48 92.6588 62.2347 91.3361 61.744C90.0348 61.2533 88.8935 60.528 87.9121 59.568C86.9521 58.5867 86.1841 57.3707 85.6081 55.92C85.0321 54.4693 84.7441 52.7947 84.7441 50.896C84.7441 48.9973 85.0321 47.3333 85.6081 45.904C86.1841 44.4533 86.9628 43.2373 87.9441 42.256C88.9468 41.2747 90.0988 40.5387 91.4001 40.048C92.7015 39.5573 94.0775 39.312 95.5281 39.312C96.9788 39.312 98.3548 39.5573 99.6561 40.048C100.957 40.5387 102.088 41.2747 103.048 42.256C104.029 43.2373 104.808 44.4533 105.384 45.904C105.96 47.3333 106.248 48.9973 106.248 50.896ZM114.607 43.248V47.92H116.783C118.383 47.92 119.813 48.048 121.071 48.304C122.33 48.56 123.397 48.976 124.271 49.552C125.146 50.1067 125.807 50.8427 126.255 51.76C126.725 52.656 126.959 53.7547 126.959 55.056C126.959 57.4667 126.085 59.2693 124.335 60.464C122.607 61.6373 120.133 62.224 116.911 62.224C116.015 62.224 115.002 62.1707 113.871 62.064C112.741 61.9787 111.674 61.8187 110.671 61.584V39.824H124.879V43.248H114.607ZM116.015 58.736C116.25 58.736 116.517 58.736 116.815 58.736C117.114 58.736 117.445 58.7253 117.807 58.704C118.469 58.6827 119.098 58.608 119.695 58.48C120.314 58.352 120.847 58.1493 121.295 57.872C121.765 57.5947 122.127 57.232 122.383 56.784C122.661 56.336 122.799 55.7707 122.799 55.088C122.799 54.32 122.661 53.6907 122.383 53.2C122.106 52.7093 121.701 52.3253 121.167 52.048C120.634 51.7493 119.983 51.5467 119.215 51.44C118.469 51.312 117.615 51.248 116.655 51.248H114.607V58.672C114.799 58.6933 115.002 58.7147 115.215 58.736C115.45 58.736 115.717 58.736 116.015 58.736ZM134.828 39.824V58.576H142.124V39.824H146.188V58.576H153.484V39.824H157.516V58.576H160.844V67.92H156.972V62H130.796V39.824H134.828ZM164.046 62V39.824H178.286V43.248H168.078V48.72H177.166V52.08H168.078V58.576H179.054V62H164.046ZM180.78 62C181.356 60.9547 181.996 59.8987 182.7 58.832C183.404 57.744 184.14 56.688 184.908 55.664C185.676 54.64 186.466 53.68 187.276 52.784C188.108 51.8667 188.93 51.0347 189.74 50.288C188.204 48.624 186.679 46.8853 185.164 45.072C183.671 43.2373 182.284 41.488 181.004 39.824H185.836C186.967 41.3173 188.172 42.864 189.452 44.464C190.754 46.064 192.055 47.6533 193.356 49.232V39.824H197.292V49.232C198.594 47.632 199.906 46.0213 201.228 44.4C202.572 42.7787 203.767 41.2533 204.812 39.824H209.612C208.247 41.5733 206.828 43.3333 205.356 45.104C203.884 46.8747 202.412 48.592 200.94 50.256C202.668 51.8347 204.3 53.6587 205.836 55.728C207.372 57.776 208.727 59.8667 209.9 62H205.356C204.119 59.9947 202.828 58.1387 201.484 56.432C200.162 54.704 198.764 53.1253 197.292 51.696V62H193.356V51.696C191.842 53.2107 190.434 54.8107 189.132 56.496C187.831 58.16 186.551 59.9947 185.292 62H180.78ZM213.171 62V39.824H217.171V54.544C217.897 53.392 218.718 52.1547 219.635 50.832C220.574 49.488 221.534 48.1547 222.515 46.832C223.518 45.5093 224.51 44.24 225.491 43.024C226.473 41.7867 227.39 40.72 228.243 39.824H231.539V62H227.571V46.128C226.675 47.1947 225.726 48.4 224.723 49.744C223.742 51.0667 222.771 52.4427 221.811 53.872C220.851 55.28 219.923 56.688 219.027 58.096C218.131 59.4827 217.321 60.784 216.595 62H213.171ZM252.315 39.824V43.312H245.499V62H241.435V43.312H234.619V39.824H252.315ZM255.39 62V39.824H259.39V54.544C260.115 53.392 260.937 52.1547 261.854 50.832C262.793 49.488 263.753 48.1547 264.734 46.832C265.737 45.5093 266.729 44.24 267.71 43.024C268.691 41.7867 269.609 40.72 270.462 39.824H273.758V62H269.79V46.128C268.894 47.1947 267.945 48.4 266.942 49.744C265.961 51.0667 264.99 52.4427 264.03 53.872C263.07 55.28 262.142 56.688 261.246 58.096C260.35 59.4827 259.539 60.784 258.814 62H255.39ZM279.078 62V39.824H293.318V43.248H283.11V48.72H292.198V52.08H283.11V58.576H294.086V62H279.078Z" fill="#212121"/>
<path d="M0 34.0312C0 18.9316 0 11.3817 4.68997 6.69087C9.37993 2 16.9283 2 32.0251 2H34.5871C49.6839 2 57.2323 2 61.9222 6.69087C66.6122 11.3817 66.6122 18.9316 66.6122 34.0312V36.5937C66.6122 51.6934 66.6122 59.2432 61.9222 63.9341C57.2323 68.625 49.6839 68.625 34.5871 68.625H32.0251C16.9283 68.625 9.37993 68.625 4.68997 63.9341C0 59.2432 0 51.6934 0 36.5937V34.0312Z" fill="#FF9900"/>
<path d="M27.5808 20.0303C30.2124 16.2868 35.7592 16.2868 38.3908 20.0303L54.0045 42.2412C57.0837 46.6213 53.9505 52.6523 48.5995 52.6523H17.3721C12.0211 52.6523 8.88793 46.6213 11.9671 42.2412L27.5808 20.0303Z" fill="#FF9900" stroke="white" stroke-width="6"/>
</svg>
