<svg width="1429" height="560" viewBox="0 0 1429 560" fill="none" xmlns="http://www.w3.org/2000/svg">
<g opacity="0.15">
<mask id="path-1-inside-1_380_472" fill="white">
<path d="M-195.384 408.995C-185.304 443.795 -205.34 480.178 -240.137 490.259C-274.933 500.341 -311.312 480.302 -321.393 445.502C-331.473 410.702 -311.436 374.319 -276.64 364.238C-241.844 354.157 -205.465 374.195 -195.384 408.995Z"/>
<path d="M-50.0369 298.586C-41.9104 296.231 -33.4142 300.911 -31.0601 309.038L-3.0817 405.628C-0.727539 413.756 -5.40686 422.253 -13.5333 424.607L-110.113 452.589C-118.239 454.943 -126.736 450.263 -129.09 442.136L-157.068 345.546C-159.422 337.419 -154.743 328.921 -146.617 326.567L-50.0369 298.586Z"/>
<path d="M161.243 305.672C171.323 340.472 151.286 376.855 116.49 386.936C81.6941 397.018 45.3146 376.979 35.2344 342.179C25.1542 307.38 45.1905 270.996 79.9867 260.915C114.783 250.834 151.162 270.872 161.243 305.672Z"/>
<path d="M306.59 195.263C314.717 192.908 323.213 197.588 325.567 205.716L353.545 302.306C355.899 310.433 351.22 318.93 343.094 321.284L246.514 349.266C238.387 351.62 229.891 346.94 227.537 338.813L199.559 242.223C197.205 234.096 201.884 225.599 210.01 223.244L306.59 195.263Z"/>
<path d="M484.904 143.601C493.03 141.247 501.526 145.927 503.88 154.054L531.859 250.644C534.213 258.771 529.534 267.268 521.407 269.623L424.827 297.604C416.701 299.959 408.205 295.279 405.851 287.151L377.872 190.562C375.518 182.434 380.197 173.937 388.324 171.583L484.904 143.601Z"/>
<path d="M601.048 131.435C606.619 114.922 626.755 109.088 640.288 120.066L695.513 164.862C711.344 177.704 706.392 203.142 686.965 208.77L609.009 231.356C589.582 236.984 571.801 218.133 578.317 198.817L601.048 131.435Z"/>
<path d="M779.362 79.7737C784.933 63.2607 805.068 57.427 818.602 68.405L873.826 113.201C889.657 126.042 884.705 151.481 865.279 157.109L787.322 179.695C767.896 185.323 750.114 166.471 756.631 147.155L779.362 79.7737Z"/>
<path d="M1052.81 47.3648C1062.89 82.1646 1042.85 118.548 1008.06 128.629C973.261 138.71 936.882 118.672 926.802 83.8722C916.722 49.0723 936.758 12.689 971.554 2.60772C1006.35 -7.47352 1042.73 12.5649 1052.81 47.3648Z"/>
<path d="M-238.863 568.075C-233.292 551.562 -213.157 545.728 -199.623 556.706L-144.398 601.502C-128.567 614.343 -133.52 639.782 -152.946 645.41L-230.902 667.996C-250.329 673.624 -268.11 654.772 -261.594 635.456L-238.863 568.075Z"/>
<path d="M-60.5496 516.413C-54.9789 499.9 -34.8434 494.067 -21.3097 505.045L33.9151 549.841C49.746 562.682 44.7937 588.12 25.3671 593.749L-52.589 616.334C-72.0156 621.963 -89.797 603.111 -83.2808 583.795L-60.5496 516.413Z"/>
<path d="M212.899 484.004C222.979 518.804 202.943 555.188 168.146 565.269C133.35 575.35 96.9706 555.312 86.8904 520.512C76.8102 485.712 96.8465 449.328 131.643 439.247C166.439 429.166 202.818 449.204 212.899 484.004Z"/>
<path d="M296.077 413.09C301.648 396.577 321.783 390.744 335.317 401.722L390.542 446.518C406.373 459.359 401.421 484.797 381.994 490.426L304.038 513.011C284.611 518.64 266.83 499.788 273.346 480.472L296.077 413.09Z"/>
<path d="M536.56 321.934C544.686 319.579 553.182 324.259 555.536 332.386L583.515 428.976C585.869 437.104 581.19 445.601 573.063 447.955L476.483 475.937C468.357 478.291 459.861 473.611 457.507 465.484L429.528 368.894C427.174 360.767 431.853 352.269 439.98 349.915L536.56 321.934Z"/>
<path d="M714.873 270.272C723 267.918 731.496 272.598 733.85 280.725L761.828 377.315C764.182 385.442 759.503 393.939 751.377 396.294L654.797 424.275C646.67 426.63 638.174 421.95 635.82 413.822L607.842 317.232C605.488 309.105 610.167 300.608 618.293 298.254L714.873 270.272Z"/>
<path d="M831.018 258.106C836.589 241.593 856.724 235.759 870.258 246.737L925.482 291.533C941.313 304.375 936.361 329.813 916.935 335.441L838.978 358.027C819.552 363.655 801.771 344.803 808.287 325.488L831.018 258.106Z"/>
<path d="M1104.47 225.697C1114.55 260.497 1094.51 296.88 1059.71 306.962C1024.92 317.043 988.538 297.004 978.458 262.204C968.378 227.405 988.414 191.021 1023.21 180.94C1058.01 170.859 1094.39 190.897 1104.47 225.697Z"/>
<path d="M-187.207 746.407C-181.636 729.894 -161.501 724.06 -147.967 735.038L-92.7424 779.834C-76.9115 792.676 -81.8638 818.114 -101.29 823.742L-179.246 846.328C-198.673 851.956 -216.454 833.104 -209.938 813.789L-187.207 746.407Z"/>
<path d="M53.2751 655.25C61.4016 652.896 69.8977 657.576 72.2519 665.703L100.23 762.293C102.584 770.42 97.9051 778.917 89.7787 781.272L-6.80109 809.253C-14.9275 811.608 -23.4237 806.928 -25.7779 798.8L-53.7563 702.211C-56.1104 694.083 -51.4311 685.586 -43.3047 683.232L53.2751 655.25Z"/>
<path d="M231.589 603.589C239.715 601.234 248.211 605.914 250.565 614.042L278.544 710.632C280.898 718.759 276.219 727.256 268.092 729.61L171.512 757.592C163.386 759.946 154.89 755.266 152.536 747.139L124.557 650.549C122.203 642.422 126.882 633.925 135.009 631.57L231.589 603.589Z"/>
<path d="M347.733 591.423C353.304 574.91 373.44 569.076 386.973 580.054L442.198 624.85C458.029 637.691 453.077 663.13 433.65 668.758L355.694 691.344C336.267 696.972 318.486 678.12 325.002 658.804L347.733 591.423Z"/>
<path d="M526.047 539.761C531.618 523.248 551.753 517.414 565.287 528.393L620.512 573.189C636.342 586.03 631.39 611.468 611.964 617.097L534.007 639.682C514.581 645.31 496.799 626.459 503.316 607.143L526.047 539.761Z"/>
<path d="M704.36 488.1C709.931 471.587 730.066 465.753 743.6 476.731L798.825 521.527C814.656 534.368 809.704 559.807 790.277 565.435L712.321 588.021C692.894 593.649 675.113 574.797 681.629 555.481L704.36 488.1Z"/>
<path d="M977.808 455.691C987.889 490.491 967.852 526.874 933.056 536.955C898.26 547.037 861.88 526.998 851.8 492.198C841.72 457.398 861.756 421.015 896.553 410.934C931.349 400.853 967.728 420.891 977.808 455.691Z"/>
<path d="M1156.12 404.029C1166.2 438.829 1146.17 475.213 1111.37 485.294C1076.57 495.375 1040.19 475.337 1030.11 440.537C1020.03 405.737 1040.07 369.354 1074.87 359.272C1109.66 349.191 1146.04 369.229 1156.12 404.029Z"/>
<path d="M-135.551 924.739C-129.98 908.226 -109.845 902.393 -96.3112 913.371L-41.0864 958.167C-25.2555 971.008 -30.2078 996.446 -49.6344 1002.07L-127.59 1024.66C-147.017 1030.29 -164.799 1011.44 -158.282 992.121L-135.551 924.739Z"/>
<path d="M104.931 833.583C113.058 831.228 121.554 835.908 123.908 844.035L151.886 940.625C154.24 948.753 149.561 957.25 141.435 959.604L44.8549 987.585C36.7285 989.94 28.2323 985.26 25.8781 977.133L-2.10028 880.543C-4.45447 872.416 0.224884 863.918 8.35132 861.564L104.931 833.583Z"/>
<path d="M221.076 821.416C226.647 804.903 246.782 799.07 260.316 810.048L315.541 854.844C331.371 867.685 326.419 893.123 306.993 898.752L229.036 921.337C209.61 926.966 191.828 908.114 198.345 888.798L221.076 821.416Z"/>
<path d="M461.558 730.26C469.685 727.905 478.181 732.585 480.535 740.712L508.513 837.302C510.867 845.43 506.188 853.927 498.062 856.281L401.482 884.263C393.355 886.617 384.859 881.937 382.505 873.81L354.527 777.22C352.173 769.093 356.852 760.596 364.978 758.241L461.558 730.26Z"/>
<path d="M639.872 678.598C647.998 676.244 656.494 680.924 658.848 689.051L686.827 785.641C689.181 793.768 684.502 802.265 676.375 804.62L579.795 832.601C571.669 834.956 563.173 830.276 560.818 822.148L532.84 725.558C530.486 717.431 535.165 708.934 543.292 706.58L639.872 678.598Z"/>
<path d="M851.151 685.685C861.231 720.484 841.195 756.868 806.399 766.949C771.603 777.03 735.223 756.992 725.143 722.192C715.063 687.392 735.099 651.009 769.895 640.928C804.691 630.846 841.071 650.885 851.151 685.685Z"/>
<path d="M934.33 614.771C939.901 598.258 960.036 592.424 973.57 603.402L1028.79 648.198C1044.63 661.039 1039.67 686.478 1020.25 692.106L942.29 714.692C922.864 720.32 905.082 701.468 911.599 682.152L934.33 614.771Z"/>
<path d="M1112.64 563.109C1118.21 546.596 1138.35 540.762 1151.88 551.74L1207.11 596.536C1222.94 609.378 1217.99 634.816 1198.56 640.445L1120.6 663.03C1101.18 668.658 1083.4 649.807 1089.91 630.491L1112.64 563.109Z"/>
<path d="M-83.8951 1103.07C-78.3244 1086.56 -58.189 1080.72 -44.6552 1091.7L10.5695 1136.5C26.4005 1149.34 21.4482 1174.78 2.02161 1180.41L-75.9345 1202.99C-95.3611 1208.62 -113.143 1189.77 -106.626 1170.45L-83.8951 1103.07Z"/>
<path d="M156.587 1011.91C164.714 1009.56 173.21 1014.24 175.564 1022.37L203.542 1118.96C205.896 1127.08 201.217 1135.58 193.091 1137.94L96.5109 1165.92C88.3845 1168.27 79.8882 1163.59 77.5341 1155.47L49.5557 1058.88C47.2015 1050.75 51.8809 1042.25 60.0073 1039.9L156.587 1011.91Z"/>
<path d="M334.901 960.254C343.027 957.899 351.523 962.579 353.877 970.706L381.856 1067.3C384.21 1075.42 379.531 1083.92 371.404 1086.28L274.824 1114.26C266.698 1116.61 258.202 1111.93 255.848 1103.8L227.869 1007.21C225.515 999.086 230.194 990.589 238.321 988.235L334.901 960.254Z"/>
<path d="M546.18 967.34C556.26 1002.14 536.224 1038.52 501.428 1048.6C466.632 1058.69 430.252 1038.65 420.172 1003.85C410.092 969.047 430.128 932.664 464.924 922.583C499.72 912.502 536.1 932.54 546.18 967.34Z"/>
<path d="M629.359 896.426C634.93 879.913 655.065 874.079 668.599 885.057L723.823 929.853C739.654 942.694 734.702 968.133 715.276 973.761L637.319 996.347C617.893 1001.98 600.111 983.123 606.628 963.807L629.359 896.426Z"/>
<path d="M902.807 864.017C912.887 898.817 892.851 935.2 858.055 945.281C823.259 955.363 786.879 935.324 776.799 900.524C766.719 865.724 786.755 829.341 821.551 819.26C856.347 809.179 892.727 829.217 902.807 864.017Z"/>
<path d="M1081.12 812.355C1091.2 847.155 1071.16 883.539 1036.37 893.62C1001.57 903.701 965.193 883.663 955.112 848.863C945.032 814.063 965.068 777.68 999.865 767.598C1034.66 757.517 1071.04 777.556 1081.12 812.355Z"/>
<path d="M1226.47 701.946C1234.59 699.592 1243.09 704.272 1245.44 712.399L1273.42 808.989C1275.78 817.116 1271.1 825.613 1262.97 827.968L1166.39 855.949C1158.27 858.304 1149.77 853.624 1147.42 845.496L1119.44 748.906C1117.08 740.779 1121.76 732.282 1129.89 729.928L1226.47 701.946Z"/>
<path d="M29.9296 1241.91C38.056 1239.55 46.5522 1244.23 48.9064 1252.36L76.8848 1348.95C79.239 1357.08 74.5596 1365.58 66.4331 1367.93L-30.1466 1395.91C-38.273 1398.27 -46.7692 1393.59 -49.1234 1385.46L-77.1018 1288.87C-79.4559 1280.74 -74.7766 1272.24 -66.6502 1269.89L29.9296 1241.91Z"/>
<path d="M208.243 1190.25C216.37 1187.89 224.866 1192.57 227.22 1200.7L255.198 1297.29C257.552 1305.42 252.873 1313.91 244.747 1316.27L148.167 1344.25C140.04 1346.6 131.544 1341.92 129.19 1333.8L101.212 1237.21C98.8575 1229.08 103.537 1220.58 111.663 1218.23L208.243 1190.25Z"/>
<path d="M324.388 1178.08C329.959 1161.57 350.094 1155.73 363.628 1166.71L418.853 1211.51C434.683 1224.35 429.731 1249.79 410.305 1255.42L332.348 1278C312.922 1283.63 295.14 1264.78 301.657 1245.46L324.388 1178.08Z"/>
<path d="M564.87 1086.92C572.997 1084.57 581.493 1089.25 583.847 1097.38L611.825 1193.97C614.179 1202.09 609.5 1210.59 601.374 1212.95L504.794 1240.93C496.667 1243.28 488.171 1238.6 485.817 1230.47L457.839 1133.88C455.484 1125.76 460.164 1117.26 468.29 1114.91L564.87 1086.92Z"/>
<path d="M776.15 1094.01C786.23 1128.81 766.193 1165.19 731.397 1175.28C696.601 1185.36 660.221 1165.32 650.141 1130.52C640.061 1095.72 660.097 1059.33 694.894 1049.25C729.69 1039.17 766.069 1059.21 776.15 1094.01Z"/>
<path d="M921.497 983.602C929.624 981.247 938.12 985.927 940.474 994.054L968.452 1090.64C970.806 1098.77 966.127 1107.27 958.001 1109.62L861.421 1137.6C853.294 1139.96 844.798 1135.28 842.444 1127.15L814.466 1030.56C812.111 1022.43 816.791 1013.94 824.917 1011.58L921.497 983.602Z"/>
<path d="M1132.78 990.688C1142.86 1025.49 1122.82 1061.87 1088.02 1071.95C1053.23 1082.03 1016.85 1062 1006.77 1027.2C996.688 992.395 1016.72 956.012 1051.52 945.931C1086.32 935.849 1122.7 955.888 1132.78 990.688Z"/>
<path d="M1311.09 939.026C1321.17 973.826 1301.13 1010.21 1266.34 1020.29C1231.54 1030.37 1195.16 1010.33 1185.08 975.534C1175 940.734 1195.04 904.351 1229.83 894.269C1264.63 884.188 1301.01 904.226 1311.09 939.026Z"/>
<path d="M81.5856 1420.24C89.712 1417.89 98.2083 1422.57 100.562 1430.69L128.541 1527.28C130.895 1535.41 126.216 1543.91 118.089 1546.26L21.5094 1574.24C13.383 1576.6 4.88675 1571.92 2.53259 1563.79L-25.4458 1467.2C-27.8 1459.07 -23.1206 1450.58 -14.9942 1448.22L81.5856 1420.24Z"/>
<path d="M292.865 1427.33C302.945 1462.13 282.909 1498.51 248.113 1508.59C213.317 1518.67 176.937 1498.63 166.857 1463.83C156.777 1429.03 176.813 1392.65 211.609 1382.57C246.405 1372.49 282.785 1392.53 292.865 1427.33Z"/>
<path d="M471.179 1375.67C481.259 1410.47 461.222 1446.85 426.426 1456.93C391.63 1467.01 355.251 1446.97 345.17 1412.17C335.09 1377.37 355.126 1340.99 389.923 1330.91C424.719 1320.83 461.098 1340.87 471.179 1375.67Z"/>
<path d="M554.357 1304.75C559.928 1288.24 580.063 1282.41 593.597 1293.38L648.822 1338.18C664.653 1351.02 659.701 1376.46 640.274 1382.09L562.318 1404.67C542.891 1410.3 525.11 1391.45 531.626 1372.13L554.357 1304.75Z"/>
<path d="M732.671 1253.09C738.241 1236.58 758.377 1230.74 771.911 1241.72L827.135 1286.52C842.966 1299.36 838.014 1324.8 818.588 1330.43L740.631 1353.01C721.205 1358.64 703.423 1339.79 709.94 1320.47L732.671 1253.09Z"/>
<path d="M1006.12 1220.68C1016.2 1255.48 996.163 1291.86 961.367 1301.95C926.571 1312.03 890.191 1291.99 880.111 1257.19C870.031 1222.39 890.067 1186.01 924.863 1175.92C959.659 1165.84 996.039 1185.88 1006.12 1220.68Z"/>
<path d="M1151.47 1110.27C1159.59 1107.92 1168.09 1112.6 1170.44 1120.73L1198.42 1217.32C1200.78 1225.44 1196.1 1233.94 1187.97 1236.29L1091.39 1264.28C1083.26 1266.63 1074.77 1261.95 1072.41 1253.82L1044.44 1157.23C1042.08 1149.11 1046.76 1140.61 1054.89 1138.25L1151.47 1110.27Z"/>
<path d="M1362.75 1117.36C1372.83 1152.16 1352.79 1188.54 1317.99 1198.62C1283.2 1208.7 1246.82 1188.67 1236.74 1153.87C1226.66 1119.07 1246.69 1082.68 1281.49 1072.6C1316.29 1062.52 1352.67 1082.56 1362.75 1117.36Z"/>
<path d="M71.0729 1638.07C76.6436 1621.56 96.779 1615.72 110.313 1626.7L165.538 1671.5C181.368 1684.34 176.416 1709.78 156.99 1715.4L79.0335 1737.99C59.6069 1743.62 41.8255 1724.77 48.3417 1705.45L71.0729 1638.07Z"/>
<path d="M311.555 1546.91C319.682 1544.56 328.178 1549.24 330.532 1557.36L358.51 1653.95C360.864 1662.08 356.185 1670.58 348.059 1672.93L251.479 1700.91C243.352 1703.27 234.856 1698.59 232.502 1690.46L204.524 1593.87C202.169 1585.74 206.849 1577.25 214.975 1574.89L311.555 1546.91Z"/>
<path d="M522.835 1554C532.915 1588.8 512.878 1625.18 478.082 1635.26C443.286 1645.34 406.907 1625.31 396.826 1590.51C386.746 1555.71 406.782 1519.32 441.579 1509.24C476.375 1499.16 512.754 1519.2 522.835 1554Z"/>
<path d="M606.013 1483.08C611.584 1466.57 631.719 1460.74 645.253 1471.72L700.478 1516.51C716.309 1529.35 711.357 1554.79 691.93 1560.42L613.974 1583.01C594.547 1588.63 576.766 1569.78 583.282 1550.47L606.013 1483.08Z"/>
<path d="M879.462 1450.68C889.542 1485.48 869.505 1521.86 834.709 1531.94C799.913 1542.02 763.534 1521.98 753.453 1487.18C743.373 1452.38 763.409 1416 798.206 1405.92C833.002 1395.84 869.381 1415.88 879.462 1450.68Z"/>
<path d="M1024.81 1340.27C1032.94 1337.91 1041.43 1342.59 1043.79 1350.72L1071.76 1447.31C1074.12 1455.44 1069.44 1463.93 1061.31 1466.29L964.733 1494.27C956.606 1496.62 948.11 1491.94 945.756 1483.82L917.778 1387.23C915.423 1379.1 920.103 1370.6 928.229 1368.25L1024.81 1340.27Z"/>
<path d="M1236.09 1347.35C1246.17 1382.15 1226.13 1418.54 1191.34 1428.62C1156.54 1438.7 1120.16 1418.66 1110.08 1383.86C1100 1349.06 1120.04 1312.68 1154.83 1302.6C1189.63 1292.51 1226.01 1312.55 1236.09 1347.35Z"/>
<path d="M1381.44 1236.94C1389.56 1234.59 1398.06 1239.27 1400.41 1247.4L1428.39 1343.99C1430.75 1352.11 1426.07 1360.61 1417.94 1362.96L1321.36 1390.95C1313.23 1393.3 1304.74 1388.62 1302.38 1380.49L1274.4 1283.9C1272.05 1275.78 1276.73 1267.28 1284.86 1264.92L1381.44 1236.94Z"/>
</mask>
<path d="M-195.384 408.995C-185.304 443.795 -205.34 480.178 -240.137 490.259C-274.933 500.341 -311.312 480.302 -321.393 445.502C-331.473 410.702 -311.436 374.319 -276.64 364.238C-241.844 354.157 -205.465 374.195 -195.384 408.995Z" stroke="#FF9900" stroke-width="10" mask="url(#path-1-inside-1_380_472)"/>
<path d="M-50.0369 298.586C-41.9104 296.231 -33.4142 300.911 -31.0601 309.038L-3.0817 405.628C-0.727539 413.756 -5.40686 422.253 -13.5333 424.607L-110.113 452.589C-118.239 454.943 -126.736 450.263 -129.09 442.136L-157.068 345.546C-159.422 337.419 -154.743 328.921 -146.617 326.567L-50.0369 298.586Z" stroke="#FF9900" stroke-width="10" mask="url(#path-1-inside-1_380_472)"/>
<path d="M161.243 305.672C171.323 340.472 151.286 376.855 116.49 386.936C81.6941 397.018 45.3146 376.979 35.2344 342.179C25.1542 307.38 45.1905 270.996 79.9867 260.915C114.783 250.834 151.162 270.872 161.243 305.672Z" stroke="#FF9900" stroke-width="10" mask="url(#path-1-inside-1_380_472)"/>
<path d="M306.59 195.263C314.717 192.908 323.213 197.588 325.567 205.716L353.545 302.306C355.899 310.433 351.22 318.93 343.094 321.284L246.514 349.266C238.387 351.62 229.891 346.94 227.537 338.813L199.559 242.223C197.205 234.096 201.884 225.599 210.01 223.244L306.59 195.263Z" stroke="#FF9900" stroke-width="10" mask="url(#path-1-inside-1_380_472)"/>
<path d="M484.904 143.601C493.03 141.247 501.526 145.927 503.88 154.054L531.859 250.644C534.213 258.771 529.534 267.268 521.407 269.623L424.827 297.604C416.701 299.959 408.205 295.279 405.851 287.151L377.872 190.562C375.518 182.434 380.197 173.937 388.324 171.583L484.904 143.601Z" stroke="#FF9900" stroke-width="10" mask="url(#path-1-inside-1_380_472)"/>
<path d="M601.048 131.435C606.619 114.922 626.755 109.088 640.288 120.066L695.513 164.862C711.344 177.704 706.392 203.142 686.965 208.77L609.009 231.356C589.582 236.984 571.801 218.133 578.317 198.817L601.048 131.435Z" stroke="#FF9900" stroke-width="10" mask="url(#path-1-inside-1_380_472)"/>
<path d="M779.362 79.7737C784.933 63.2607 805.068 57.427 818.602 68.405L873.826 113.201C889.657 126.042 884.705 151.481 865.279 157.109L787.322 179.695C767.896 185.323 750.114 166.471 756.631 147.155L779.362 79.7737Z" stroke="#FF9900" stroke-width="10" mask="url(#path-1-inside-1_380_472)"/>
<path d="M1052.81 47.3648C1062.89 82.1646 1042.85 118.548 1008.06 128.629C973.261 138.71 936.882 118.672 926.802 83.8722C916.722 49.0723 936.758 12.689 971.554 2.60772C1006.35 -7.47352 1042.73 12.5649 1052.81 47.3648Z" stroke="#FF9900" stroke-width="10" mask="url(#path-1-inside-1_380_472)"/>
<path d="M-238.863 568.075C-233.292 551.562 -213.157 545.728 -199.623 556.706L-144.398 601.502C-128.567 614.343 -133.52 639.782 -152.946 645.41L-230.902 667.996C-250.329 673.624 -268.11 654.772 -261.594 635.456L-238.863 568.075Z" stroke="#FF9900" stroke-width="10" mask="url(#path-1-inside-1_380_472)"/>
<path d="M-60.5496 516.413C-54.9789 499.9 -34.8434 494.067 -21.3097 505.045L33.9151 549.841C49.746 562.682 44.7937 588.12 25.3671 593.749L-52.589 616.334C-72.0156 621.963 -89.797 603.111 -83.2808 583.795L-60.5496 516.413Z" stroke="#FF9900" stroke-width="10" mask="url(#path-1-inside-1_380_472)"/>
<path d="M212.899 484.004C222.979 518.804 202.943 555.188 168.146 565.269C133.35 575.35 96.9706 555.312 86.8904 520.512C76.8102 485.712 96.8465 449.328 131.643 439.247C166.439 429.166 202.818 449.204 212.899 484.004Z" stroke="#FF9900" stroke-width="10" mask="url(#path-1-inside-1_380_472)"/>
<path d="M296.077 413.09C301.648 396.577 321.783 390.744 335.317 401.722L390.542 446.518C406.373 459.359 401.421 484.797 381.994 490.426L304.038 513.011C284.611 518.64 266.83 499.788 273.346 480.472L296.077 413.09Z" stroke="#FF9900" stroke-width="10" mask="url(#path-1-inside-1_380_472)"/>
<path d="M536.56 321.934C544.686 319.579 553.182 324.259 555.536 332.386L583.515 428.976C585.869 437.104 581.19 445.601 573.063 447.955L476.483 475.937C468.357 478.291 459.861 473.611 457.507 465.484L429.528 368.894C427.174 360.767 431.853 352.269 439.98 349.915L536.56 321.934Z" stroke="#FF9900" stroke-width="10" mask="url(#path-1-inside-1_380_472)"/>
<path d="M714.873 270.272C723 267.918 731.496 272.598 733.85 280.725L761.828 377.315C764.182 385.442 759.503 393.939 751.377 396.294L654.797 424.275C646.67 426.63 638.174 421.95 635.82 413.822L607.842 317.232C605.488 309.105 610.167 300.608 618.293 298.254L714.873 270.272Z" stroke="#FF9900" stroke-width="10" mask="url(#path-1-inside-1_380_472)"/>
<path d="M831.018 258.106C836.589 241.593 856.724 235.759 870.258 246.737L925.482 291.533C941.313 304.375 936.361 329.813 916.935 335.441L838.978 358.027C819.552 363.655 801.771 344.803 808.287 325.488L831.018 258.106Z" stroke="#FF9900" stroke-width="10" mask="url(#path-1-inside-1_380_472)"/>
<path d="M1104.47 225.697C1114.55 260.497 1094.51 296.88 1059.71 306.962C1024.92 317.043 988.538 297.004 978.458 262.204C968.378 227.405 988.414 191.021 1023.21 180.94C1058.01 170.859 1094.39 190.897 1104.47 225.697Z" stroke="#FF9900" stroke-width="10" mask="url(#path-1-inside-1_380_472)"/>
<path d="M-187.207 746.407C-181.636 729.894 -161.501 724.06 -147.967 735.038L-92.7424 779.834C-76.9115 792.676 -81.8638 818.114 -101.29 823.742L-179.246 846.328C-198.673 851.956 -216.454 833.104 -209.938 813.789L-187.207 746.407Z" stroke="#FF9900" stroke-width="10" mask="url(#path-1-inside-1_380_472)"/>
<path d="M53.2751 655.25C61.4016 652.896 69.8977 657.576 72.2519 665.703L100.23 762.293C102.584 770.42 97.9051 778.917 89.7787 781.272L-6.80109 809.253C-14.9275 811.608 -23.4237 806.928 -25.7779 798.8L-53.7563 702.211C-56.1104 694.083 -51.4311 685.586 -43.3047 683.232L53.2751 655.25Z" stroke="#FF9900" stroke-width="10" mask="url(#path-1-inside-1_380_472)"/>
<path d="M231.589 603.589C239.715 601.234 248.211 605.914 250.565 614.042L278.544 710.632C280.898 718.759 276.219 727.256 268.092 729.61L171.512 757.592C163.386 759.946 154.89 755.266 152.536 747.139L124.557 650.549C122.203 642.422 126.882 633.925 135.009 631.57L231.589 603.589Z" stroke="#FF9900" stroke-width="10" mask="url(#path-1-inside-1_380_472)"/>
<path d="M347.733 591.423C353.304 574.91 373.44 569.076 386.973 580.054L442.198 624.85C458.029 637.691 453.077 663.13 433.65 668.758L355.694 691.344C336.267 696.972 318.486 678.12 325.002 658.804L347.733 591.423Z" stroke="#FF9900" stroke-width="10" mask="url(#path-1-inside-1_380_472)"/>
<path d="M526.047 539.761C531.618 523.248 551.753 517.414 565.287 528.393L620.512 573.189C636.342 586.03 631.39 611.468 611.964 617.097L534.007 639.682C514.581 645.31 496.799 626.459 503.316 607.143L526.047 539.761Z" stroke="#FF9900" stroke-width="10" mask="url(#path-1-inside-1_380_472)"/>
<path d="M704.36 488.1C709.931 471.587 730.066 465.753 743.6 476.731L798.825 521.527C814.656 534.368 809.704 559.807 790.277 565.435L712.321 588.021C692.894 593.649 675.113 574.797 681.629 555.481L704.36 488.1Z" stroke="#FF9900" stroke-width="10" mask="url(#path-1-inside-1_380_472)"/>
<path d="M977.808 455.691C987.889 490.491 967.852 526.874 933.056 536.955C898.26 547.037 861.88 526.998 851.8 492.198C841.72 457.398 861.756 421.015 896.553 410.934C931.349 400.853 967.728 420.891 977.808 455.691Z" stroke="#FF9900" stroke-width="10" mask="url(#path-1-inside-1_380_472)"/>
<path d="M1156.12 404.029C1166.2 438.829 1146.17 475.213 1111.37 485.294C1076.57 495.375 1040.19 475.337 1030.11 440.537C1020.03 405.737 1040.07 369.354 1074.87 359.272C1109.66 349.191 1146.04 369.229 1156.12 404.029Z" stroke="#FF9900" stroke-width="10" mask="url(#path-1-inside-1_380_472)"/>
<path d="M-135.551 924.739C-129.98 908.226 -109.845 902.393 -96.3112 913.371L-41.0864 958.167C-25.2555 971.008 -30.2078 996.446 -49.6344 1002.07L-127.59 1024.66C-147.017 1030.29 -164.799 1011.44 -158.282 992.121L-135.551 924.739Z" stroke="#FF9900" stroke-width="10" mask="url(#path-1-inside-1_380_472)"/>
<path d="M104.931 833.583C113.058 831.228 121.554 835.908 123.908 844.035L151.886 940.625C154.24 948.753 149.561 957.25 141.435 959.604L44.8549 987.585C36.7285 989.94 28.2323 985.26 25.8781 977.133L-2.10028 880.543C-4.45447 872.416 0.224884 863.918 8.35132 861.564L104.931 833.583Z" stroke="#FF9900" stroke-width="10" mask="url(#path-1-inside-1_380_472)"/>
<path d="M221.076 821.416C226.647 804.903 246.782 799.07 260.316 810.048L315.541 854.844C331.371 867.685 326.419 893.123 306.993 898.752L229.036 921.337C209.61 926.966 191.828 908.114 198.345 888.798L221.076 821.416Z" stroke="#FF9900" stroke-width="10" mask="url(#path-1-inside-1_380_472)"/>
<path d="M461.558 730.26C469.685 727.905 478.181 732.585 480.535 740.712L508.513 837.302C510.867 845.43 506.188 853.927 498.062 856.281L401.482 884.263C393.355 886.617 384.859 881.937 382.505 873.81L354.527 777.22C352.173 769.093 356.852 760.596 364.978 758.241L461.558 730.26Z" stroke="#FF9900" stroke-width="10" mask="url(#path-1-inside-1_380_472)"/>
<path d="M639.872 678.598C647.998 676.244 656.494 680.924 658.848 689.051L686.827 785.641C689.181 793.768 684.502 802.265 676.375 804.62L579.795 832.601C571.669 834.956 563.173 830.276 560.818 822.148L532.84 725.558C530.486 717.431 535.165 708.934 543.292 706.58L639.872 678.598Z" stroke="#FF9900" stroke-width="10" mask="url(#path-1-inside-1_380_472)"/>
<path d="M851.151 685.685C861.231 720.484 841.195 756.868 806.399 766.949C771.603 777.03 735.223 756.992 725.143 722.192C715.063 687.392 735.099 651.009 769.895 640.928C804.691 630.846 841.071 650.885 851.151 685.685Z" stroke="#FF9900" stroke-width="10" mask="url(#path-1-inside-1_380_472)"/>
<path d="M934.33 614.771C939.901 598.258 960.036 592.424 973.57 603.402L1028.79 648.198C1044.63 661.039 1039.67 686.478 1020.25 692.106L942.29 714.692C922.864 720.32 905.082 701.468 911.599 682.152L934.33 614.771Z" stroke="#FF9900" stroke-width="10" mask="url(#path-1-inside-1_380_472)"/>
<path d="M1112.64 563.109C1118.21 546.596 1138.35 540.762 1151.88 551.74L1207.11 596.536C1222.94 609.378 1217.99 634.816 1198.56 640.445L1120.6 663.03C1101.18 668.658 1083.4 649.807 1089.91 630.491L1112.64 563.109Z" stroke="#FF9900" stroke-width="10" mask="url(#path-1-inside-1_380_472)"/>
<path d="M-83.8951 1103.07C-78.3244 1086.56 -58.189 1080.72 -44.6552 1091.7L10.5695 1136.5C26.4005 1149.34 21.4482 1174.78 2.02161 1180.41L-75.9345 1202.99C-95.3611 1208.62 -113.143 1189.77 -106.626 1170.45L-83.8951 1103.07Z" stroke="#FF9900" stroke-width="10" mask="url(#path-1-inside-1_380_472)"/>
<path d="M156.587 1011.91C164.714 1009.56 173.21 1014.24 175.564 1022.37L203.542 1118.96C205.896 1127.08 201.217 1135.58 193.091 1137.94L96.5109 1165.92C88.3845 1168.27 79.8882 1163.59 77.5341 1155.47L49.5557 1058.88C47.2015 1050.75 51.8809 1042.25 60.0073 1039.9L156.587 1011.91Z" stroke="#FF9900" stroke-width="10" mask="url(#path-1-inside-1_380_472)"/>
<path d="M334.901 960.254C343.027 957.899 351.523 962.579 353.877 970.706L381.856 1067.3C384.21 1075.42 379.531 1083.92 371.404 1086.28L274.824 1114.26C266.698 1116.61 258.202 1111.93 255.848 1103.8L227.869 1007.21C225.515 999.086 230.194 990.589 238.321 988.235L334.901 960.254Z" stroke="#FF9900" stroke-width="10" mask="url(#path-1-inside-1_380_472)"/>
<path d="M546.18 967.34C556.26 1002.14 536.224 1038.52 501.428 1048.6C466.632 1058.69 430.252 1038.65 420.172 1003.85C410.092 969.047 430.128 932.664 464.924 922.583C499.72 912.502 536.1 932.54 546.18 967.34Z" stroke="#FF9900" stroke-width="10" mask="url(#path-1-inside-1_380_472)"/>
<path d="M629.359 896.426C634.93 879.913 655.065 874.079 668.599 885.057L723.823 929.853C739.654 942.694 734.702 968.133 715.276 973.761L637.319 996.347C617.893 1001.98 600.111 983.123 606.628 963.807L629.359 896.426Z" stroke="#FF9900" stroke-width="10" mask="url(#path-1-inside-1_380_472)"/>
<path d="M902.807 864.017C912.887 898.817 892.851 935.2 858.055 945.281C823.259 955.363 786.879 935.324 776.799 900.524C766.719 865.724 786.755 829.341 821.551 819.26C856.347 809.179 892.727 829.217 902.807 864.017Z" stroke="#FF9900" stroke-width="10" mask="url(#path-1-inside-1_380_472)"/>
<path d="M1081.12 812.355C1091.2 847.155 1071.16 883.539 1036.37 893.62C1001.57 903.701 965.193 883.663 955.112 848.863C945.032 814.063 965.068 777.68 999.865 767.598C1034.66 757.517 1071.04 777.556 1081.12 812.355Z" stroke="#FF9900" stroke-width="10" mask="url(#path-1-inside-1_380_472)"/>
<path d="M1226.47 701.946C1234.59 699.592 1243.09 704.272 1245.44 712.399L1273.42 808.989C1275.78 817.116 1271.1 825.613 1262.97 827.968L1166.39 855.949C1158.27 858.304 1149.77 853.624 1147.42 845.496L1119.44 748.906C1117.08 740.779 1121.76 732.282 1129.89 729.928L1226.47 701.946Z" stroke="#FF9900" stroke-width="10" mask="url(#path-1-inside-1_380_472)"/>
<path d="M29.9296 1241.91C38.056 1239.55 46.5522 1244.23 48.9064 1252.36L76.8848 1348.95C79.239 1357.08 74.5596 1365.58 66.4331 1367.93L-30.1466 1395.91C-38.273 1398.27 -46.7692 1393.59 -49.1234 1385.46L-77.1018 1288.87C-79.4559 1280.74 -74.7766 1272.24 -66.6502 1269.89L29.9296 1241.91Z" stroke="#FF9900" stroke-width="10" mask="url(#path-1-inside-1_380_472)"/>
<path d="M208.243 1190.25C216.37 1187.89 224.866 1192.57 227.22 1200.7L255.198 1297.29C257.552 1305.42 252.873 1313.91 244.747 1316.27L148.167 1344.25C140.04 1346.6 131.544 1341.92 129.19 1333.8L101.212 1237.21C98.8575 1229.08 103.537 1220.58 111.663 1218.23L208.243 1190.25Z" stroke="#FF9900" stroke-width="10" mask="url(#path-1-inside-1_380_472)"/>
<path d="M324.388 1178.08C329.959 1161.57 350.094 1155.73 363.628 1166.71L418.853 1211.51C434.683 1224.35 429.731 1249.79 410.305 1255.42L332.348 1278C312.922 1283.63 295.14 1264.78 301.657 1245.46L324.388 1178.08Z" stroke="#FF9900" stroke-width="10" mask="url(#path-1-inside-1_380_472)"/>
<path d="M564.87 1086.92C572.997 1084.57 581.493 1089.25 583.847 1097.38L611.825 1193.97C614.179 1202.09 609.5 1210.59 601.374 1212.95L504.794 1240.93C496.667 1243.28 488.171 1238.6 485.817 1230.47L457.839 1133.88C455.484 1125.76 460.164 1117.26 468.29 1114.91L564.87 1086.92Z" stroke="#FF9900" stroke-width="10" mask="url(#path-1-inside-1_380_472)"/>
<path d="M776.15 1094.01C786.23 1128.81 766.193 1165.19 731.397 1175.28C696.601 1185.36 660.221 1165.32 650.141 1130.52C640.061 1095.72 660.097 1059.33 694.894 1049.25C729.69 1039.17 766.069 1059.21 776.15 1094.01Z" stroke="#FF9900" stroke-width="10" mask="url(#path-1-inside-1_380_472)"/>
<path d="M921.497 983.602C929.624 981.247 938.12 985.927 940.474 994.054L968.452 1090.64C970.806 1098.77 966.127 1107.27 958.001 1109.62L861.421 1137.6C853.294 1139.96 844.798 1135.28 842.444 1127.15L814.466 1030.56C812.111 1022.43 816.791 1013.94 824.917 1011.58L921.497 983.602Z" stroke="#FF9900" stroke-width="10" mask="url(#path-1-inside-1_380_472)"/>
<path d="M1132.78 990.688C1142.86 1025.49 1122.82 1061.87 1088.02 1071.95C1053.23 1082.03 1016.85 1062 1006.77 1027.2C996.688 992.395 1016.72 956.012 1051.52 945.931C1086.32 935.849 1122.7 955.888 1132.78 990.688Z" stroke="#FF9900" stroke-width="10" mask="url(#path-1-inside-1_380_472)"/>
<path d="M1311.09 939.026C1321.17 973.826 1301.13 1010.21 1266.34 1020.29C1231.54 1030.37 1195.16 1010.33 1185.08 975.534C1175 940.734 1195.04 904.351 1229.83 894.269C1264.63 884.188 1301.01 904.226 1311.09 939.026Z" stroke="#FF9900" stroke-width="10" mask="url(#path-1-inside-1_380_472)"/>
<path d="M81.5856 1420.24C89.712 1417.89 98.2083 1422.57 100.562 1430.69L128.541 1527.28C130.895 1535.41 126.216 1543.91 118.089 1546.26L21.5094 1574.24C13.383 1576.6 4.88675 1571.92 2.53259 1563.79L-25.4458 1467.2C-27.8 1459.07 -23.1206 1450.58 -14.9942 1448.22L81.5856 1420.24Z" stroke="#FF9900" stroke-width="10" mask="url(#path-1-inside-1_380_472)"/>
<path d="M292.865 1427.33C302.945 1462.13 282.909 1498.51 248.113 1508.59C213.317 1518.67 176.937 1498.63 166.857 1463.83C156.777 1429.03 176.813 1392.65 211.609 1382.57C246.405 1372.49 282.785 1392.53 292.865 1427.33Z" stroke="#FF9900" stroke-width="10" mask="url(#path-1-inside-1_380_472)"/>
<path d="M471.179 1375.67C481.259 1410.47 461.222 1446.85 426.426 1456.93C391.63 1467.01 355.251 1446.97 345.17 1412.17C335.09 1377.37 355.126 1340.99 389.923 1330.91C424.719 1320.83 461.098 1340.87 471.179 1375.67Z" stroke="#FF9900" stroke-width="10" mask="url(#path-1-inside-1_380_472)"/>
<path d="M554.357 1304.75C559.928 1288.24 580.063 1282.41 593.597 1293.38L648.822 1338.18C664.653 1351.02 659.701 1376.46 640.274 1382.09L562.318 1404.67C542.891 1410.3 525.11 1391.45 531.626 1372.13L554.357 1304.75Z" stroke="#FF9900" stroke-width="10" mask="url(#path-1-inside-1_380_472)"/>
<path d="M732.671 1253.09C738.241 1236.58 758.377 1230.74 771.911 1241.72L827.135 1286.52C842.966 1299.36 838.014 1324.8 818.588 1330.43L740.631 1353.01C721.205 1358.64 703.423 1339.79 709.94 1320.47L732.671 1253.09Z" stroke="#FF9900" stroke-width="10" mask="url(#path-1-inside-1_380_472)"/>
<path d="M1006.12 1220.68C1016.2 1255.48 996.163 1291.86 961.367 1301.95C926.571 1312.03 890.191 1291.99 880.111 1257.19C870.031 1222.39 890.067 1186.01 924.863 1175.92C959.659 1165.84 996.039 1185.88 1006.12 1220.68Z" stroke="#FF9900" stroke-width="10" mask="url(#path-1-inside-1_380_472)"/>
<path d="M1151.47 1110.27C1159.59 1107.92 1168.09 1112.6 1170.44 1120.73L1198.42 1217.32C1200.78 1225.44 1196.1 1233.94 1187.97 1236.29L1091.39 1264.28C1083.26 1266.63 1074.77 1261.95 1072.41 1253.82L1044.44 1157.23C1042.08 1149.11 1046.76 1140.61 1054.89 1138.25L1151.47 1110.27Z" stroke="#FF9900" stroke-width="10" mask="url(#path-1-inside-1_380_472)"/>
<path d="M1362.75 1117.36C1372.83 1152.16 1352.79 1188.54 1317.99 1198.62C1283.2 1208.7 1246.82 1188.67 1236.74 1153.87C1226.66 1119.07 1246.69 1082.68 1281.49 1072.6C1316.29 1062.52 1352.67 1082.56 1362.75 1117.36Z" stroke="#FF9900" stroke-width="10" mask="url(#path-1-inside-1_380_472)"/>
<path d="M71.0729 1638.07C76.6436 1621.56 96.779 1615.72 110.313 1626.7L165.538 1671.5C181.368 1684.34 176.416 1709.78 156.99 1715.4L79.0335 1737.99C59.6069 1743.62 41.8255 1724.77 48.3417 1705.45L71.0729 1638.07Z" stroke="#FF9900" stroke-width="10" mask="url(#path-1-inside-1_380_472)"/>
<path d="M311.555 1546.91C319.682 1544.56 328.178 1549.24 330.532 1557.36L358.51 1653.95C360.864 1662.08 356.185 1670.58 348.059 1672.93L251.479 1700.91C243.352 1703.27 234.856 1698.59 232.502 1690.46L204.524 1593.87C202.169 1585.74 206.849 1577.25 214.975 1574.89L311.555 1546.91Z" stroke="#FF9900" stroke-width="10" mask="url(#path-1-inside-1_380_472)"/>
<path d="M522.835 1554C532.915 1588.8 512.878 1625.18 478.082 1635.26C443.286 1645.34 406.907 1625.31 396.826 1590.51C386.746 1555.71 406.782 1519.32 441.579 1509.24C476.375 1499.16 512.754 1519.2 522.835 1554Z" stroke="#FF9900" stroke-width="10" mask="url(#path-1-inside-1_380_472)"/>
<path d="M606.013 1483.08C611.584 1466.57 631.719 1460.74 645.253 1471.72L700.478 1516.51C716.309 1529.35 711.357 1554.79 691.93 1560.42L613.974 1583.01C594.547 1588.63 576.766 1569.78 583.282 1550.47L606.013 1483.08Z" stroke="#FF9900" stroke-width="10" mask="url(#path-1-inside-1_380_472)"/>
<path d="M879.462 1450.68C889.542 1485.48 869.505 1521.86 834.709 1531.94C799.913 1542.02 763.534 1521.98 753.453 1487.18C743.373 1452.38 763.409 1416 798.206 1405.92C833.002 1395.84 869.381 1415.88 879.462 1450.68Z" stroke="#FF9900" stroke-width="10" mask="url(#path-1-inside-1_380_472)"/>
<path d="M1024.81 1340.27C1032.94 1337.91 1041.43 1342.59 1043.79 1350.72L1071.76 1447.31C1074.12 1455.44 1069.44 1463.93 1061.31 1466.29L964.733 1494.27C956.606 1496.62 948.11 1491.94 945.756 1483.82L917.778 1387.23C915.423 1379.1 920.103 1370.6 928.229 1368.25L1024.81 1340.27Z" stroke="#FF9900" stroke-width="10" mask="url(#path-1-inside-1_380_472)"/>
<path d="M1236.09 1347.35C1246.17 1382.15 1226.13 1418.54 1191.34 1428.62C1156.54 1438.7 1120.16 1418.66 1110.08 1383.86C1100 1349.06 1120.04 1312.68 1154.83 1302.6C1189.63 1292.51 1226.01 1312.55 1236.09 1347.35Z" stroke="#FF9900" stroke-width="10" mask="url(#path-1-inside-1_380_472)"/>
<path d="M1381.44 1236.94C1389.56 1234.59 1398.06 1239.27 1400.41 1247.4L1428.39 1343.99C1430.75 1352.11 1426.07 1360.61 1417.94 1362.96L1321.36 1390.95C1313.23 1393.3 1304.74 1388.62 1302.38 1380.49L1274.4 1283.9C1272.05 1275.78 1276.73 1267.28 1284.86 1264.92L1381.44 1236.94Z" stroke="#FF9900" stroke-width="10" mask="url(#path-1-inside-1_380_472)"/>
</g>
</svg>
