<svg width="1671" height="1115" viewBox="0 0 1671 1115" fill="none" xmlns="http://www.w3.org/2000/svg">
<g opacity="0.15">
<mask id="path-1-inside-1_380_478" fill="white">
<path d="M128.616 -215.005C138.696 -180.205 118.66 -143.822 83.8633 -133.741C49.0671 -123.659 12.6876 -143.698 2.60745 -178.498C-7.47273 -213.298 12.5636 -249.681 47.3598 -259.762C82.156 -269.843 118.535 -249.805 128.616 -215.005Z"/>
<path d="M273.963 -325.414C282.09 -327.769 290.586 -323.089 292.94 -314.962L320.918 -218.372C323.272 -210.244 318.593 -201.747 310.467 -199.393L213.887 -171.411C205.761 -169.057 197.264 -173.737 194.91 -181.864L166.932 -278.454C164.578 -286.581 169.257 -295.079 177.383 -297.433L273.963 -325.414Z"/>
<path d="M485.243 -318.328C495.323 -283.528 475.286 -247.145 440.49 -237.064C405.694 -226.982 369.315 -247.021 359.234 -281.821C349.154 -316.62 369.191 -353.004 403.987 -363.085C438.783 -373.166 475.162 -353.128 485.243 -318.328Z"/>
<path d="M630.59 -428.737C638.717 -431.092 647.213 -426.412 649.567 -418.284L677.545 -321.694C679.899 -313.567 675.22 -305.07 667.094 -302.716L570.514 -274.734C562.387 -272.38 553.891 -277.06 551.537 -285.187L523.559 -381.777C521.205 -389.904 525.884 -398.401 534.01 -400.756L630.59 -428.737Z"/>
<path d="M808.904 -480.399C817.03 -482.753 825.526 -478.073 827.88 -469.946L855.859 -373.356C858.213 -365.229 853.534 -356.732 845.407 -354.377L748.827 -326.396C740.701 -324.041 732.205 -328.721 729.851 -336.849L701.872 -433.438C699.518 -441.566 704.197 -450.063 712.324 -452.417L808.904 -480.399Z"/>
<path d="M925.048 -492.565C930.619 -509.078 950.755 -514.912 964.288 -503.934L1019.51 -459.138C1035.34 -446.296 1030.39 -420.858 1010.97 -415.23L933.009 -392.644C913.582 -387.016 895.801 -405.867 902.317 -425.183L925.048 -492.565Z"/>
<path d="M1103.36 -544.226C1108.93 -560.739 1129.07 -566.573 1142.6 -555.595L1197.83 -510.799C1213.66 -497.958 1208.71 -472.519 1189.28 -466.891L1111.32 -444.305C1091.9 -438.677 1074.11 -457.529 1080.63 -476.845L1103.36 -544.226Z"/>
<path d="M1376.81 -576.635C1386.89 -541.835 1366.85 -505.452 1332.06 -495.371C1297.26 -485.29 1260.88 -505.328 1250.8 -540.128C1240.72 -574.928 1260.76 -611.311 1295.55 -621.392C1330.35 -631.474 1366.73 -611.435 1376.81 -576.635Z"/>
<path d="M85.137 -55.9253C90.7076 -72.4383 110.843 -78.272 124.377 -67.294L179.602 -22.498C195.433 -9.65668 190.48 15.7817 171.054 21.41L93.0975 43.9957C73.6709 49.624 55.8895 30.7722 62.4057 11.4563L85.137 -55.9253Z"/>
<path d="M263.45 -107.587C269.021 -124.1 289.157 -129.933 302.69 -118.955L357.915 -74.1595C373.746 -61.3181 368.794 -35.8798 349.367 -30.2515L271.411 -7.66577C251.984 -2.03748 234.203 -20.8893 240.719 -40.2051L263.45 -107.587Z"/>
<path d="M536.899 -139.996C546.979 -105.196 526.943 -68.8125 492.146 -58.7313C457.35 -48.65 420.971 -68.6884 410.89 -103.488C400.81 -138.288 420.847 -174.672 455.643 -184.753C490.439 -194.834 526.818 -174.796 536.899 -139.996Z"/>
<path d="M620.077 -210.91C625.648 -227.423 645.783 -233.256 659.317 -222.278L714.542 -177.482C730.373 -164.641 725.421 -139.203 705.994 -133.574L628.038 -110.989C608.611 -105.36 590.83 -124.212 597.346 -143.528L620.077 -210.91Z"/>
<path d="M860.56 -302.066C868.686 -304.421 877.182 -299.741 879.536 -291.614L907.515 -195.024C909.869 -186.896 905.19 -178.399 897.063 -176.045L800.483 -148.063C792.357 -145.709 783.861 -150.389 781.507 -158.516L753.528 -255.106C751.174 -263.233 755.853 -271.731 763.98 -274.085L860.56 -302.066Z"/>
<path d="M1038.87 -353.728C1047 -356.082 1055.5 -351.402 1057.85 -343.275L1085.83 -246.685C1088.18 -238.558 1083.5 -230.061 1075.38 -227.706L978.797 -199.725C970.67 -197.37 962.174 -202.05 959.82 -210.178L931.842 -306.768C929.488 -314.895 934.167 -323.392 942.293 -325.746L1038.87 -353.728Z"/>
<path d="M1155.02 -365.894C1160.59 -382.407 1180.72 -388.241 1194.26 -377.263L1249.48 -332.467C1265.31 -319.625 1260.36 -294.187 1240.93 -288.559L1162.98 -265.973C1143.55 -260.345 1125.77 -279.197 1132.29 -298.512L1155.02 -365.894Z"/>
<path d="M1428.47 -398.303C1438.55 -363.503 1418.51 -327.12 1383.71 -317.038C1348.92 -306.957 1312.54 -326.996 1302.46 -361.796C1292.38 -396.595 1312.41 -432.979 1347.21 -443.06C1382.01 -453.141 1418.39 -433.103 1428.47 -398.303Z"/>
<path d="M136.793 122.407C142.364 105.894 162.499 100.06 176.033 111.038L231.258 155.834C247.089 168.676 242.136 194.114 222.71 199.742L144.754 222.328C125.327 227.956 107.546 209.104 114.062 189.789L136.793 122.407Z"/>
<path d="M377.275 31.2504C385.402 28.8959 393.898 33.5758 396.252 41.7031L424.23 138.293C426.584 146.42 421.905 154.917 413.779 157.272L317.199 185.253C309.072 187.608 300.576 182.928 298.222 174.8L270.244 78.2105C267.89 70.0832 272.569 61.5861 280.695 59.2317L377.275 31.2504Z"/>
<path d="M555.589 -20.4111C563.715 -22.7655 572.211 -18.0856 574.565 -9.95831L602.544 86.6316C604.898 94.7589 600.219 103.256 592.092 105.61L495.512 133.592C487.386 135.946 478.89 131.266 476.536 123.139L448.557 26.5491C446.203 18.4218 450.882 9.92462 459.009 7.57025L555.589 -20.4111Z"/>
<path d="M671.733 -32.5773C677.304 -49.0903 697.44 -54.924 710.973 -43.946L766.198 0.849976C782.029 13.6913 777.077 39.1297 757.65 44.758L679.694 67.3436C660.267 72.972 642.486 54.1201 649.002 34.8043L671.733 -32.5773Z"/>
<path d="M850.047 -84.2388C855.618 -100.752 875.753 -106.586 889.287 -95.6075L944.512 -50.8115C960.342 -37.9701 955.39 -12.5318 935.964 -6.90344L858.007 15.6822C838.581 21.3105 820.799 2.45868 827.316 -16.8572L850.047 -84.2388Z"/>
<path d="M1028.36 -135.9C1033.93 -152.413 1054.07 -158.247 1067.6 -147.269L1122.82 -102.473C1138.66 -89.6316 1133.7 -64.1932 1114.28 -58.5649L1036.32 -35.9792C1016.89 -30.3509 999.113 -49.2028 1005.63 -68.5186L1028.36 -135.9Z"/>
<path d="M1301.81 -168.309C1311.89 -133.509 1291.85 -97.1259 1257.06 -87.0447C1222.26 -76.9634 1185.88 -97.0018 1175.8 -131.802C1165.72 -166.602 1185.76 -202.985 1220.55 -213.066C1255.35 -223.147 1291.73 -203.109 1301.81 -168.309Z"/>
<path d="M1480.12 -219.971C1490.2 -185.171 1470.17 -148.787 1435.37 -138.706C1400.57 -128.625 1364.19 -148.663 1354.11 -183.463C1344.03 -218.263 1364.07 -254.646 1398.87 -264.728C1433.66 -274.809 1470.04 -254.771 1480.12 -219.971Z"/>
<path d="M188.449 300.739C194.02 284.226 214.155 278.393 227.689 289.371L282.914 334.167C298.744 347.008 293.792 372.446 274.366 378.075L196.41 400.66C176.983 406.289 159.201 387.437 165.718 368.121L188.449 300.739Z"/>
<path d="M428.931 209.583C437.058 207.228 445.554 211.908 447.908 220.035L475.886 316.625C478.24 324.753 473.561 333.25 465.435 335.604L368.855 363.585C360.728 365.94 352.232 361.26 349.878 353.133L321.9 256.543C319.546 248.416 324.225 239.918 332.351 237.564L428.931 209.583Z"/>
<path d="M545.076 197.416C550.647 180.903 570.782 175.07 584.316 186.048L639.541 230.844C655.371 243.685 650.419 269.123 630.993 274.752L553.036 297.337C533.61 302.966 515.828 284.114 522.345 264.798L545.076 197.416Z"/>
<path d="M785.558 106.26C793.685 103.905 802.181 108.585 804.535 116.712L832.513 213.302C834.867 221.43 830.188 229.927 822.062 232.281L725.482 260.263C717.355 262.617 708.859 257.937 706.505 249.81L678.527 153.22C676.173 145.093 680.852 136.596 688.978 134.241L785.558 106.26Z"/>
<path d="M963.872 54.5983C971.998 52.2439 980.494 56.9238 982.848 65.0511L1010.83 161.641C1013.18 169.768 1008.5 178.265 1000.38 180.62L903.795 208.601C895.669 210.956 887.173 206.276 884.818 198.148L856.84 101.558C854.486 93.4312 859.165 84.9341 867.292 82.5797L963.872 54.5983Z"/>
<path d="M1175.15 61.6846C1185.23 96.4844 1165.19 132.868 1130.4 142.949C1095.6 153.03 1059.22 132.992 1049.14 98.192C1039.06 63.3922 1059.1 27.0088 1093.9 16.9276C1128.69 6.84631 1165.07 26.8847 1175.15 61.6846Z"/>
<path d="M1258.33 -9.22937C1263.9 -25.7424 1284.04 -31.576 1297.57 -20.598L1352.79 24.1979C1368.63 37.0392 1363.67 62.4777 1344.25 68.106L1266.29 90.6916C1246.86 96.3199 1229.08 77.4681 1235.6 58.1523L1258.33 -9.22937Z"/>
<path d="M1436.64 -60.8907C1442.21 -77.4038 1462.35 -83.2375 1475.88 -72.2595L1531.11 -27.4636C1546.94 -14.6222 1541.99 10.8162 1522.56 16.4445L1444.6 39.0302C1425.18 44.6584 1407.4 25.8066 1413.91 6.49078L1436.64 -60.8907Z"/>
<path d="M240.105 479.072C245.676 462.559 265.811 456.725 279.345 467.703L334.57 512.499C350.4 525.34 345.448 550.779 326.022 556.407L248.065 578.993C228.639 584.621 210.857 565.769 217.374 546.453L240.105 479.072Z"/>
<path d="M480.587 387.915C488.714 385.561 497.21 390.24 499.564 398.368L527.542 494.958C529.896 503.085 525.217 511.582 517.091 513.936L420.511 541.918C412.384 544.272 403.888 539.592 401.534 531.465L373.556 434.875C371.202 426.748 375.881 418.251 384.007 415.896L480.587 387.915Z"/>
<path d="M658.901 336.254C667.027 333.899 675.523 338.579 677.877 346.706L705.856 443.296C708.21 451.424 703.531 459.921 695.404 462.275L598.824 490.256C590.698 492.611 582.202 487.931 579.848 479.804L551.869 383.214C549.515 375.086 554.194 366.589 562.321 364.235L658.901 336.254Z"/>
<path d="M870.18 343.34C880.26 378.14 860.224 414.523 825.428 424.604C790.632 434.686 754.252 414.647 744.172 379.847C734.092 345.047 754.128 308.664 788.924 298.583C823.72 288.502 860.1 308.54 870.18 343.34Z"/>
<path d="M953.359 272.426C958.93 255.913 979.065 250.079 992.599 261.057L1047.82 305.853C1063.65 318.694 1058.7 344.133 1039.28 349.761L961.319 372.347C941.893 377.975 924.111 359.123 930.628 339.807L953.359 272.426Z"/>
<path d="M1226.81 240.017C1236.89 274.817 1216.85 311.2 1182.05 321.281C1147.26 331.363 1110.88 311.324 1100.8 276.524C1090.72 241.724 1110.75 205.341 1145.55 195.26C1180.35 185.179 1216.73 205.217 1226.81 240.017Z"/>
<path d="M1405.12 188.355C1415.2 223.155 1395.16 259.539 1360.37 269.62C1325.57 279.701 1289.19 259.663 1279.11 224.863C1269.03 190.063 1289.07 153.68 1323.86 143.598C1358.66 133.517 1395.04 153.556 1405.12 188.355Z"/>
<path d="M1550.47 77.9463C1558.59 75.5919 1567.09 80.2717 1569.44 88.399L1597.42 184.989C1599.78 193.116 1595.1 201.613 1586.97 203.968L1490.39 231.949C1482.27 234.304 1473.77 229.624 1471.42 221.496L1443.44 124.906C1441.08 116.779 1445.76 108.282 1453.89 105.928L1550.47 77.9463Z"/>
<path d="M353.93 617.909C362.056 615.554 370.552 620.234 372.906 628.361L400.885 724.951C403.239 733.079 398.56 741.576 390.433 743.93L293.853 771.911C285.727 774.266 277.231 769.586 274.877 761.459L246.898 664.869C244.544 656.742 249.223 648.245 257.35 645.89L353.93 617.909Z"/>
<path d="M532.243 566.247C540.37 563.893 548.866 568.573 551.22 576.7L579.198 673.29C581.552 681.417 576.873 689.914 568.747 692.269L472.167 720.25C464.04 722.604 455.544 717.925 453.19 709.797L425.212 613.207C422.858 605.08 427.537 596.583 435.663 594.229L532.243 566.247Z"/>
<path d="M648.388 554.081C653.959 537.568 674.094 531.734 687.628 542.712L742.853 587.508C758.683 600.35 753.731 625.788 734.305 631.416L656.348 654.002C636.922 659.63 619.14 640.778 625.657 621.463L648.388 554.081Z"/>
<path d="M888.87 462.924C896.997 460.57 905.493 465.25 907.847 473.377L935.825 569.967C938.179 578.094 933.5 586.591 925.374 588.946L828.794 616.927C820.667 619.282 812.171 614.602 809.817 606.474L781.839 509.885C779.484 501.757 784.164 493.26 792.29 490.906L888.87 462.924Z"/>
<path d="M1100.15 470.011C1110.23 504.811 1090.19 541.194 1055.4 551.275C1020.6 561.356 984.221 541.318 974.141 506.518C964.061 471.718 984.097 435.335 1018.89 425.254C1053.69 415.172 1090.07 435.211 1100.15 470.011Z"/>
<path d="M1245.5 359.602C1253.62 357.247 1262.12 361.927 1264.47 370.054L1292.45 466.644C1294.81 474.771 1290.13 483.269 1282 485.623L1185.42 513.604C1177.29 515.959 1168.8 511.279 1166.44 503.152L1138.47 406.562C1136.11 398.434 1140.79 389.937 1148.92 387.583L1245.5 359.602Z"/>
<path d="M1456.78 366.688C1466.86 401.488 1446.82 437.871 1412.02 447.952C1377.23 458.034 1340.85 437.995 1330.77 403.195C1320.69 368.395 1340.72 332.012 1375.52 321.931C1410.32 311.849 1446.7 331.888 1456.78 366.688Z"/>
<path d="M1635.09 315.026C1645.17 349.826 1625.13 386.21 1590.34 396.291C1555.54 406.372 1519.16 386.334 1509.08 351.534C1499 316.734 1519.04 280.351 1553.83 270.269C1588.63 260.188 1625.01 280.226 1635.09 315.026Z"/>
<path d="M405.586 796.241C413.712 793.887 422.208 798.567 424.562 806.694L452.541 903.284C454.895 911.411 450.216 919.908 442.089 922.263L345.509 950.244C337.383 952.598 328.887 947.918 326.533 939.791L298.554 843.201C296.2 835.074 300.879 826.577 309.006 824.222L405.586 796.241Z"/>
<path d="M616.865 803.327C626.945 838.127 606.909 874.51 572.113 884.592C537.317 894.673 500.937 874.635 490.857 839.835C480.777 805.035 500.813 768.651 535.609 758.57C570.405 748.489 606.785 768.527 616.865 803.327Z"/>
<path d="M795.179 751.666C805.259 786.466 785.222 822.849 750.426 832.93C715.63 843.012 679.251 822.973 669.17 788.173C659.09 753.373 679.126 716.99 713.923 706.909C748.719 696.828 785.098 716.866 795.179 751.666Z"/>
<path d="M878.357 680.752C883.928 664.239 904.063 658.405 917.597 669.383L972.822 714.179C988.653 727.021 983.701 752.459 964.274 758.087L886.318 780.673C866.891 786.301 849.11 767.449 855.626 748.134L878.357 680.752Z"/>
<path d="M1056.67 629.09C1062.24 612.578 1082.38 606.744 1095.91 617.722L1151.14 662.518C1166.97 675.359 1162.01 700.797 1142.59 706.426L1064.63 729.011C1045.2 734.64 1027.42 715.788 1033.94 696.472L1056.67 629.09Z"/>
<path d="M1330.12 596.682C1340.2 631.481 1320.16 667.865 1285.37 677.946C1250.57 688.027 1214.19 667.989 1204.11 633.189C1194.03 598.389 1214.07 562.006 1248.86 551.924C1283.66 541.843 1320.04 561.882 1330.12 596.682Z"/>
<path d="M1475.47 486.272C1483.59 483.918 1492.09 488.598 1494.44 496.725L1522.42 593.315C1524.78 601.442 1520.1 609.939 1511.97 612.294L1415.39 640.275C1407.26 642.63 1398.77 637.95 1396.41 629.823L1368.44 533.233C1366.08 525.105 1370.76 516.608 1378.89 514.254L1475.47 486.272Z"/>
<path d="M1686.75 493.359C1696.83 528.159 1676.79 564.542 1641.99 574.623C1607.2 584.704 1570.82 564.666 1560.74 529.866C1550.66 495.066 1570.69 458.683 1605.49 448.602C1640.29 438.52 1676.67 458.559 1686.75 493.359Z"/>
<path d="M395.073 1014.07C400.644 997.555 420.779 991.722 434.313 1002.7L489.538 1047.5C505.368 1060.34 500.416 1085.78 480.99 1091.4L403.034 1113.99C383.607 1119.62 365.825 1100.77 372.342 1081.45L395.073 1014.07Z"/>
<path d="M635.555 922.912C643.682 920.557 652.178 925.237 654.532 933.365L682.51 1029.95C684.864 1038.08 680.185 1046.58 672.059 1048.93L575.479 1076.91C567.352 1079.27 558.856 1074.59 556.502 1066.46L528.524 969.872C526.169 961.745 530.849 953.248 538.975 950.893L635.555 922.912Z"/>
<path d="M846.835 929.998C856.915 964.798 836.878 1001.18 802.082 1011.26C767.286 1021.34 730.907 1001.31 720.826 966.506C710.746 931.706 730.782 895.322 765.579 885.241C800.375 875.16 836.754 895.198 846.835 929.998Z"/>
<path d="M930.013 859.084C935.584 842.571 955.719 836.738 969.253 847.716L1024.48 892.511C1040.31 905.353 1035.36 930.791 1015.93 936.419L937.974 959.005C918.547 964.633 900.766 945.782 907.282 926.466L930.013 859.084Z"/>
<path d="M1203.46 826.675C1213.54 861.475 1193.51 897.859 1158.71 907.94C1123.91 918.021 1087.53 897.983 1077.45 863.183C1067.37 828.383 1087.41 792 1122.21 781.918C1157 771.837 1193.38 791.875 1203.46 826.675Z"/>
<path d="M1348.81 716.266C1356.94 713.912 1365.43 718.592 1367.79 726.719L1395.76 823.309C1398.12 831.436 1393.44 839.933 1385.31 842.288L1288.73 870.269C1280.61 872.623 1272.11 867.943 1269.76 859.816L1241.78 763.226C1239.42 755.099 1244.1 746.602 1252.23 744.247L1348.81 716.266Z"/>
<path d="M1560.09 723.352C1570.17 758.152 1550.13 794.536 1515.34 804.617C1480.54 814.698 1444.16 794.66 1434.08 759.86C1424 725.06 1444.04 688.677 1478.83 678.595C1513.63 668.514 1550.01 688.552 1560.09 723.352Z"/>
<path d="M1705.44 612.943C1713.56 610.589 1722.06 615.269 1724.41 623.396L1752.39 719.986C1754.75 728.113 1750.07 736.61 1741.94 738.965L1645.36 766.946C1637.23 769.3 1628.74 764.621 1626.38 756.493L1598.4 659.903C1596.05 651.776 1600.73 643.279 1608.86 640.925L1705.44 612.943Z"/>
</mask>
<path d="M128.616 -215.005C138.696 -180.205 118.66 -143.822 83.8633 -133.741C49.0671 -123.659 12.6876 -143.698 2.60745 -178.498C-7.47273 -213.298 12.5636 -249.681 47.3598 -259.762C82.156 -269.843 118.535 -249.805 128.616 -215.005Z" stroke="#FF9900" stroke-width="10" mask="url(#path-1-inside-1_380_478)"/>
<path d="M273.963 -325.414C282.09 -327.769 290.586 -323.089 292.94 -314.962L320.918 -218.372C323.272 -210.244 318.593 -201.747 310.467 -199.393L213.887 -171.411C205.761 -169.057 197.264 -173.737 194.91 -181.864L166.932 -278.454C164.578 -286.581 169.257 -295.079 177.383 -297.433L273.963 -325.414Z" stroke="#FF9900" stroke-width="10" mask="url(#path-1-inside-1_380_478)"/>
<path d="M485.243 -318.328C495.323 -283.528 475.286 -247.145 440.49 -237.064C405.694 -226.982 369.315 -247.021 359.234 -281.821C349.154 -316.62 369.191 -353.004 403.987 -363.085C438.783 -373.166 475.162 -353.128 485.243 -318.328Z" stroke="#FF9900" stroke-width="10" mask="url(#path-1-inside-1_380_478)"/>
<path d="M630.59 -428.737C638.717 -431.092 647.213 -426.412 649.567 -418.284L677.545 -321.694C679.899 -313.567 675.22 -305.07 667.094 -302.716L570.514 -274.734C562.387 -272.38 553.891 -277.06 551.537 -285.187L523.559 -381.777C521.205 -389.904 525.884 -398.401 534.01 -400.756L630.59 -428.737Z" stroke="#FF9900" stroke-width="10" mask="url(#path-1-inside-1_380_478)"/>
<path d="M808.904 -480.399C817.03 -482.753 825.526 -478.073 827.88 -469.946L855.859 -373.356C858.213 -365.229 853.534 -356.732 845.407 -354.377L748.827 -326.396C740.701 -324.041 732.205 -328.721 729.851 -336.849L701.872 -433.438C699.518 -441.566 704.197 -450.063 712.324 -452.417L808.904 -480.399Z" stroke="#FF9900" stroke-width="10" mask="url(#path-1-inside-1_380_478)"/>
<path d="M925.048 -492.565C930.619 -509.078 950.755 -514.912 964.288 -503.934L1019.51 -459.138C1035.34 -446.296 1030.39 -420.858 1010.97 -415.23L933.009 -392.644C913.582 -387.016 895.801 -405.867 902.317 -425.183L925.048 -492.565Z" stroke="#FF9900" stroke-width="10" mask="url(#path-1-inside-1_380_478)"/>
<path d="M1103.36 -544.226C1108.93 -560.739 1129.07 -566.573 1142.6 -555.595L1197.83 -510.799C1213.66 -497.958 1208.71 -472.519 1189.28 -466.891L1111.32 -444.305C1091.9 -438.677 1074.11 -457.529 1080.63 -476.845L1103.36 -544.226Z" stroke="#FF9900" stroke-width="10" mask="url(#path-1-inside-1_380_478)"/>
<path d="M1376.81 -576.635C1386.89 -541.835 1366.85 -505.452 1332.06 -495.371C1297.26 -485.29 1260.88 -505.328 1250.8 -540.128C1240.72 -574.928 1260.76 -611.311 1295.55 -621.392C1330.35 -631.474 1366.73 -611.435 1376.81 -576.635Z" stroke="#FF9900" stroke-width="10" mask="url(#path-1-inside-1_380_478)"/>
<path d="M85.137 -55.9253C90.7076 -72.4383 110.843 -78.272 124.377 -67.294L179.602 -22.498C195.433 -9.65668 190.48 15.7817 171.054 21.41L93.0975 43.9957C73.6709 49.624 55.8895 30.7722 62.4057 11.4563L85.137 -55.9253Z" stroke="#FF9900" stroke-width="10" mask="url(#path-1-inside-1_380_478)"/>
<path d="M263.45 -107.587C269.021 -124.1 289.157 -129.933 302.69 -118.955L357.915 -74.1595C373.746 -61.3181 368.794 -35.8798 349.367 -30.2515L271.411 -7.66577C251.984 -2.03748 234.203 -20.8893 240.719 -40.2051L263.45 -107.587Z" stroke="#FF9900" stroke-width="10" mask="url(#path-1-inside-1_380_478)"/>
<path d="M536.899 -139.996C546.979 -105.196 526.943 -68.8125 492.146 -58.7313C457.35 -48.65 420.971 -68.6884 410.89 -103.488C400.81 -138.288 420.847 -174.672 455.643 -184.753C490.439 -194.834 526.818 -174.796 536.899 -139.996Z" stroke="#FF9900" stroke-width="10" mask="url(#path-1-inside-1_380_478)"/>
<path d="M620.077 -210.91C625.648 -227.423 645.783 -233.256 659.317 -222.278L714.542 -177.482C730.373 -164.641 725.421 -139.203 705.994 -133.574L628.038 -110.989C608.611 -105.36 590.83 -124.212 597.346 -143.528L620.077 -210.91Z" stroke="#FF9900" stroke-width="10" mask="url(#path-1-inside-1_380_478)"/>
<path d="M860.56 -302.066C868.686 -304.421 877.182 -299.741 879.536 -291.614L907.515 -195.024C909.869 -186.896 905.19 -178.399 897.063 -176.045L800.483 -148.063C792.357 -145.709 783.861 -150.389 781.507 -158.516L753.528 -255.106C751.174 -263.233 755.853 -271.731 763.98 -274.085L860.56 -302.066Z" stroke="#FF9900" stroke-width="10" mask="url(#path-1-inside-1_380_478)"/>
<path d="M1038.87 -353.728C1047 -356.082 1055.5 -351.402 1057.85 -343.275L1085.83 -246.685C1088.18 -238.558 1083.5 -230.061 1075.38 -227.706L978.797 -199.725C970.67 -197.37 962.174 -202.05 959.82 -210.178L931.842 -306.768C929.488 -314.895 934.167 -323.392 942.293 -325.746L1038.87 -353.728Z" stroke="#FF9900" stroke-width="10" mask="url(#path-1-inside-1_380_478)"/>
<path d="M1155.02 -365.894C1160.59 -382.407 1180.72 -388.241 1194.26 -377.263L1249.48 -332.467C1265.31 -319.625 1260.36 -294.187 1240.93 -288.559L1162.98 -265.973C1143.55 -260.345 1125.77 -279.197 1132.29 -298.512L1155.02 -365.894Z" stroke="#FF9900" stroke-width="10" mask="url(#path-1-inside-1_380_478)"/>
<path d="M1428.47 -398.303C1438.55 -363.503 1418.51 -327.12 1383.71 -317.038C1348.92 -306.957 1312.54 -326.996 1302.46 -361.796C1292.38 -396.595 1312.41 -432.979 1347.21 -443.06C1382.01 -453.141 1418.39 -433.103 1428.47 -398.303Z" stroke="#FF9900" stroke-width="10" mask="url(#path-1-inside-1_380_478)"/>
<path d="M136.793 122.407C142.364 105.894 162.499 100.06 176.033 111.038L231.258 155.834C247.089 168.676 242.136 194.114 222.71 199.742L144.754 222.328C125.327 227.956 107.546 209.104 114.062 189.789L136.793 122.407Z" stroke="#FF9900" stroke-width="10" mask="url(#path-1-inside-1_380_478)"/>
<path d="M377.275 31.2504C385.402 28.8959 393.898 33.5758 396.252 41.7031L424.23 138.293C426.584 146.42 421.905 154.917 413.779 157.272L317.199 185.253C309.072 187.608 300.576 182.928 298.222 174.8L270.244 78.2105C267.89 70.0832 272.569 61.5861 280.695 59.2317L377.275 31.2504Z" stroke="#FF9900" stroke-width="10" mask="url(#path-1-inside-1_380_478)"/>
<path d="M555.589 -20.4111C563.715 -22.7655 572.211 -18.0856 574.565 -9.95831L602.544 86.6316C604.898 94.7589 600.219 103.256 592.092 105.61L495.512 133.592C487.386 135.946 478.89 131.266 476.536 123.139L448.557 26.5491C446.203 18.4218 450.882 9.92462 459.009 7.57025L555.589 -20.4111Z" stroke="#FF9900" stroke-width="10" mask="url(#path-1-inside-1_380_478)"/>
<path d="M671.733 -32.5773C677.304 -49.0903 697.44 -54.924 710.973 -43.946L766.198 0.849976C782.029 13.6913 777.077 39.1297 757.65 44.758L679.694 67.3436C660.267 72.972 642.486 54.1201 649.002 34.8043L671.733 -32.5773Z" stroke="#FF9900" stroke-width="10" mask="url(#path-1-inside-1_380_478)"/>
<path d="M850.047 -84.2388C855.618 -100.752 875.753 -106.586 889.287 -95.6075L944.512 -50.8115C960.342 -37.9701 955.39 -12.5318 935.964 -6.90344L858.007 15.6822C838.581 21.3105 820.799 2.45868 827.316 -16.8572L850.047 -84.2388Z" stroke="#FF9900" stroke-width="10" mask="url(#path-1-inside-1_380_478)"/>
<path d="M1028.36 -135.9C1033.93 -152.413 1054.07 -158.247 1067.6 -147.269L1122.82 -102.473C1138.66 -89.6316 1133.7 -64.1932 1114.28 -58.5649L1036.32 -35.9792C1016.89 -30.3509 999.113 -49.2028 1005.63 -68.5186L1028.36 -135.9Z" stroke="#FF9900" stroke-width="10" mask="url(#path-1-inside-1_380_478)"/>
<path d="M1301.81 -168.309C1311.89 -133.509 1291.85 -97.1259 1257.06 -87.0447C1222.26 -76.9634 1185.88 -97.0018 1175.8 -131.802C1165.72 -166.602 1185.76 -202.985 1220.55 -213.066C1255.35 -223.147 1291.73 -203.109 1301.81 -168.309Z" stroke="#FF9900" stroke-width="10" mask="url(#path-1-inside-1_380_478)"/>
<path d="M1480.12 -219.971C1490.2 -185.171 1470.17 -148.787 1435.37 -138.706C1400.57 -128.625 1364.19 -148.663 1354.11 -183.463C1344.03 -218.263 1364.07 -254.646 1398.87 -264.728C1433.66 -274.809 1470.04 -254.771 1480.12 -219.971Z" stroke="#FF9900" stroke-width="10" mask="url(#path-1-inside-1_380_478)"/>
<path d="M188.449 300.739C194.02 284.226 214.155 278.393 227.689 289.371L282.914 334.167C298.744 347.008 293.792 372.446 274.366 378.075L196.41 400.66C176.983 406.289 159.201 387.437 165.718 368.121L188.449 300.739Z" stroke="#FF9900" stroke-width="10" mask="url(#path-1-inside-1_380_478)"/>
<path d="M428.931 209.583C437.058 207.228 445.554 211.908 447.908 220.035L475.886 316.625C478.24 324.753 473.561 333.25 465.435 335.604L368.855 363.585C360.728 365.94 352.232 361.26 349.878 353.133L321.9 256.543C319.546 248.416 324.225 239.918 332.351 237.564L428.931 209.583Z" stroke="#FF9900" stroke-width="10" mask="url(#path-1-inside-1_380_478)"/>
<path d="M545.076 197.416C550.647 180.903 570.782 175.07 584.316 186.048L639.541 230.844C655.371 243.685 650.419 269.123 630.993 274.752L553.036 297.337C533.61 302.966 515.828 284.114 522.345 264.798L545.076 197.416Z" stroke="#FF9900" stroke-width="10" mask="url(#path-1-inside-1_380_478)"/>
<path d="M785.558 106.26C793.685 103.905 802.181 108.585 804.535 116.712L832.513 213.302C834.867 221.43 830.188 229.927 822.062 232.281L725.482 260.263C717.355 262.617 708.859 257.937 706.505 249.81L678.527 153.22C676.173 145.093 680.852 136.596 688.978 134.241L785.558 106.26Z" stroke="#FF9900" stroke-width="10" mask="url(#path-1-inside-1_380_478)"/>
<path d="M963.872 54.5983C971.998 52.2439 980.494 56.9238 982.848 65.0511L1010.83 161.641C1013.18 169.768 1008.5 178.265 1000.38 180.62L903.795 208.601C895.669 210.956 887.173 206.276 884.818 198.148L856.84 101.558C854.486 93.4312 859.165 84.9341 867.292 82.5797L963.872 54.5983Z" stroke="#FF9900" stroke-width="10" mask="url(#path-1-inside-1_380_478)"/>
<path d="M1175.15 61.6846C1185.23 96.4844 1165.19 132.868 1130.4 142.949C1095.6 153.03 1059.22 132.992 1049.14 98.192C1039.06 63.3922 1059.1 27.0088 1093.9 16.9276C1128.69 6.84631 1165.07 26.8847 1175.15 61.6846Z" stroke="#FF9900" stroke-width="10" mask="url(#path-1-inside-1_380_478)"/>
<path d="M1258.33 -9.22937C1263.9 -25.7424 1284.04 -31.576 1297.57 -20.598L1352.79 24.1979C1368.63 37.0392 1363.67 62.4777 1344.25 68.106L1266.29 90.6916C1246.86 96.3199 1229.08 77.4681 1235.6 58.1523L1258.33 -9.22937Z" stroke="#FF9900" stroke-width="10" mask="url(#path-1-inside-1_380_478)"/>
<path d="M1436.64 -60.8907C1442.21 -77.4038 1462.35 -83.2375 1475.88 -72.2595L1531.11 -27.4636C1546.94 -14.6222 1541.99 10.8162 1522.56 16.4445L1444.6 39.0302C1425.18 44.6584 1407.4 25.8066 1413.91 6.49078L1436.64 -60.8907Z" stroke="#FF9900" stroke-width="10" mask="url(#path-1-inside-1_380_478)"/>
<path d="M240.105 479.072C245.676 462.559 265.811 456.725 279.345 467.703L334.57 512.499C350.4 525.34 345.448 550.779 326.022 556.407L248.065 578.993C228.639 584.621 210.857 565.769 217.374 546.453L240.105 479.072Z" stroke="#FF9900" stroke-width="10" mask="url(#path-1-inside-1_380_478)"/>
<path d="M480.587 387.915C488.714 385.561 497.21 390.24 499.564 398.368L527.542 494.958C529.896 503.085 525.217 511.582 517.091 513.936L420.511 541.918C412.384 544.272 403.888 539.592 401.534 531.465L373.556 434.875C371.202 426.748 375.881 418.251 384.007 415.896L480.587 387.915Z" stroke="#FF9900" stroke-width="10" mask="url(#path-1-inside-1_380_478)"/>
<path d="M658.901 336.254C667.027 333.899 675.523 338.579 677.877 346.706L705.856 443.296C708.21 451.424 703.531 459.921 695.404 462.275L598.824 490.256C590.698 492.611 582.202 487.931 579.848 479.804L551.869 383.214C549.515 375.086 554.194 366.589 562.321 364.235L658.901 336.254Z" stroke="#FF9900" stroke-width="10" mask="url(#path-1-inside-1_380_478)"/>
<path d="M870.18 343.34C880.26 378.14 860.224 414.523 825.428 424.604C790.632 434.686 754.252 414.647 744.172 379.847C734.092 345.047 754.128 308.664 788.924 298.583C823.72 288.502 860.1 308.54 870.18 343.34Z" stroke="#FF9900" stroke-width="10" mask="url(#path-1-inside-1_380_478)"/>
<path d="M953.359 272.426C958.93 255.913 979.065 250.079 992.599 261.057L1047.82 305.853C1063.65 318.694 1058.7 344.133 1039.28 349.761L961.319 372.347C941.893 377.975 924.111 359.123 930.628 339.807L953.359 272.426Z" stroke="#FF9900" stroke-width="10" mask="url(#path-1-inside-1_380_478)"/>
<path d="M1226.81 240.017C1236.89 274.817 1216.85 311.2 1182.05 321.281C1147.26 331.363 1110.88 311.324 1100.8 276.524C1090.72 241.724 1110.75 205.341 1145.55 195.26C1180.35 185.179 1216.73 205.217 1226.81 240.017Z" stroke="#FF9900" stroke-width="10" mask="url(#path-1-inside-1_380_478)"/>
<path d="M1405.12 188.355C1415.2 223.155 1395.16 259.539 1360.37 269.62C1325.57 279.701 1289.19 259.663 1279.11 224.863C1269.03 190.063 1289.07 153.68 1323.86 143.598C1358.66 133.517 1395.04 153.556 1405.12 188.355Z" stroke="#FF9900" stroke-width="10" mask="url(#path-1-inside-1_380_478)"/>
<path d="M1550.47 77.9463C1558.59 75.5919 1567.09 80.2717 1569.44 88.399L1597.42 184.989C1599.78 193.116 1595.1 201.613 1586.97 203.968L1490.39 231.949C1482.27 234.304 1473.77 229.624 1471.42 221.496L1443.44 124.906C1441.08 116.779 1445.76 108.282 1453.89 105.928L1550.47 77.9463Z" stroke="#FF9900" stroke-width="10" mask="url(#path-1-inside-1_380_478)"/>
<path d="M353.93 617.909C362.056 615.554 370.552 620.234 372.906 628.361L400.885 724.951C403.239 733.079 398.56 741.576 390.433 743.93L293.853 771.911C285.727 774.266 277.231 769.586 274.877 761.459L246.898 664.869C244.544 656.742 249.223 648.245 257.35 645.89L353.93 617.909Z" stroke="#FF9900" stroke-width="10" mask="url(#path-1-inside-1_380_478)"/>
<path d="M532.243 566.247C540.37 563.893 548.866 568.573 551.22 576.7L579.198 673.29C581.552 681.417 576.873 689.914 568.747 692.269L472.167 720.25C464.04 722.604 455.544 717.925 453.19 709.797L425.212 613.207C422.858 605.08 427.537 596.583 435.663 594.229L532.243 566.247Z" stroke="#FF9900" stroke-width="10" mask="url(#path-1-inside-1_380_478)"/>
<path d="M648.388 554.081C653.959 537.568 674.094 531.734 687.628 542.712L742.853 587.508C758.683 600.35 753.731 625.788 734.305 631.416L656.348 654.002C636.922 659.63 619.14 640.778 625.657 621.463L648.388 554.081Z" stroke="#FF9900" stroke-width="10" mask="url(#path-1-inside-1_380_478)"/>
<path d="M888.87 462.924C896.997 460.57 905.493 465.25 907.847 473.377L935.825 569.967C938.179 578.094 933.5 586.591 925.374 588.946L828.794 616.927C820.667 619.282 812.171 614.602 809.817 606.474L781.839 509.885C779.484 501.757 784.164 493.26 792.29 490.906L888.87 462.924Z" stroke="#FF9900" stroke-width="10" mask="url(#path-1-inside-1_380_478)"/>
<path d="M1100.15 470.011C1110.23 504.811 1090.19 541.194 1055.4 551.275C1020.6 561.356 984.221 541.318 974.141 506.518C964.061 471.718 984.097 435.335 1018.89 425.254C1053.69 415.172 1090.07 435.211 1100.15 470.011Z" stroke="#FF9900" stroke-width="10" mask="url(#path-1-inside-1_380_478)"/>
<path d="M1245.5 359.602C1253.62 357.247 1262.12 361.927 1264.47 370.054L1292.45 466.644C1294.81 474.771 1290.13 483.269 1282 485.623L1185.42 513.604C1177.29 515.959 1168.8 511.279 1166.44 503.152L1138.47 406.562C1136.11 398.434 1140.79 389.937 1148.92 387.583L1245.5 359.602Z" stroke="#FF9900" stroke-width="10" mask="url(#path-1-inside-1_380_478)"/>
<path d="M1456.78 366.688C1466.86 401.488 1446.82 437.871 1412.02 447.952C1377.23 458.034 1340.85 437.995 1330.77 403.195C1320.69 368.395 1340.72 332.012 1375.52 321.931C1410.32 311.849 1446.7 331.888 1456.78 366.688Z" stroke="#FF9900" stroke-width="10" mask="url(#path-1-inside-1_380_478)"/>
<path d="M1635.09 315.026C1645.17 349.826 1625.13 386.21 1590.34 396.291C1555.54 406.372 1519.16 386.334 1509.08 351.534C1499 316.734 1519.04 280.351 1553.83 270.269C1588.63 260.188 1625.01 280.226 1635.09 315.026Z" stroke="#FF9900" stroke-width="10" mask="url(#path-1-inside-1_380_478)"/>
<path d="M405.586 796.241C413.712 793.887 422.208 798.567 424.562 806.694L452.541 903.284C454.895 911.411 450.216 919.908 442.089 922.263L345.509 950.244C337.383 952.598 328.887 947.918 326.533 939.791L298.554 843.201C296.2 835.074 300.879 826.577 309.006 824.222L405.586 796.241Z" stroke="#FF9900" stroke-width="10" mask="url(#path-1-inside-1_380_478)"/>
<path d="M616.865 803.327C626.945 838.127 606.909 874.51 572.113 884.592C537.317 894.673 500.937 874.635 490.857 839.835C480.777 805.035 500.813 768.651 535.609 758.57C570.405 748.489 606.785 768.527 616.865 803.327Z" stroke="#FF9900" stroke-width="10" mask="url(#path-1-inside-1_380_478)"/>
<path d="M795.179 751.666C805.259 786.466 785.222 822.849 750.426 832.93C715.63 843.012 679.251 822.973 669.17 788.173C659.09 753.373 679.126 716.99 713.923 706.909C748.719 696.828 785.098 716.866 795.179 751.666Z" stroke="#FF9900" stroke-width="10" mask="url(#path-1-inside-1_380_478)"/>
<path d="M878.357 680.752C883.928 664.239 904.063 658.405 917.597 669.383L972.822 714.179C988.653 727.021 983.701 752.459 964.274 758.087L886.318 780.673C866.891 786.301 849.11 767.449 855.626 748.134L878.357 680.752Z" stroke="#FF9900" stroke-width="10" mask="url(#path-1-inside-1_380_478)"/>
<path d="M1056.67 629.09C1062.24 612.578 1082.38 606.744 1095.91 617.722L1151.14 662.518C1166.97 675.359 1162.01 700.797 1142.59 706.426L1064.63 729.011C1045.2 734.64 1027.42 715.788 1033.94 696.472L1056.67 629.09Z" stroke="#FF9900" stroke-width="10" mask="url(#path-1-inside-1_380_478)"/>
<path d="M1330.12 596.682C1340.2 631.481 1320.16 667.865 1285.37 677.946C1250.57 688.027 1214.19 667.989 1204.11 633.189C1194.03 598.389 1214.07 562.006 1248.86 551.924C1283.66 541.843 1320.04 561.882 1330.12 596.682Z" stroke="#FF9900" stroke-width="10" mask="url(#path-1-inside-1_380_478)"/>
<path d="M1475.47 486.272C1483.59 483.918 1492.09 488.598 1494.44 496.725L1522.42 593.315C1524.78 601.442 1520.1 609.939 1511.97 612.294L1415.39 640.275C1407.26 642.63 1398.77 637.95 1396.41 629.823L1368.44 533.233C1366.08 525.105 1370.76 516.608 1378.89 514.254L1475.47 486.272Z" stroke="#FF9900" stroke-width="10" mask="url(#path-1-inside-1_380_478)"/>
<path d="M1686.75 493.359C1696.83 528.159 1676.79 564.542 1641.99 574.623C1607.2 584.704 1570.82 564.666 1560.74 529.866C1550.66 495.066 1570.69 458.683 1605.49 448.602C1640.29 438.52 1676.67 458.559 1686.75 493.359Z" stroke="#FF9900" stroke-width="10" mask="url(#path-1-inside-1_380_478)"/>
<path d="M395.073 1014.07C400.644 997.555 420.779 991.722 434.313 1002.7L489.538 1047.5C505.368 1060.34 500.416 1085.78 480.99 1091.4L403.034 1113.99C383.607 1119.62 365.825 1100.77 372.342 1081.45L395.073 1014.07Z" stroke="#FF9900" stroke-width="10" mask="url(#path-1-inside-1_380_478)"/>
<path d="M635.555 922.912C643.682 920.557 652.178 925.237 654.532 933.365L682.51 1029.95C684.864 1038.08 680.185 1046.58 672.059 1048.93L575.479 1076.91C567.352 1079.27 558.856 1074.59 556.502 1066.46L528.524 969.872C526.169 961.745 530.849 953.248 538.975 950.893L635.555 922.912Z" stroke="#FF9900" stroke-width="10" mask="url(#path-1-inside-1_380_478)"/>
<path d="M846.835 929.998C856.915 964.798 836.878 1001.18 802.082 1011.26C767.286 1021.34 730.907 1001.31 720.826 966.506C710.746 931.706 730.782 895.322 765.579 885.241C800.375 875.16 836.754 895.198 846.835 929.998Z" stroke="#FF9900" stroke-width="10" mask="url(#path-1-inside-1_380_478)"/>
<path d="M930.013 859.084C935.584 842.571 955.719 836.738 969.253 847.716L1024.48 892.511C1040.31 905.353 1035.36 930.791 1015.93 936.419L937.974 959.005C918.547 964.633 900.766 945.782 907.282 926.466L930.013 859.084Z" stroke="#FF9900" stroke-width="10" mask="url(#path-1-inside-1_380_478)"/>
<path d="M1203.46 826.675C1213.54 861.475 1193.51 897.859 1158.71 907.94C1123.91 918.021 1087.53 897.983 1077.45 863.183C1067.37 828.383 1087.41 792 1122.21 781.918C1157 771.837 1193.38 791.875 1203.46 826.675Z" stroke="#FF9900" stroke-width="10" mask="url(#path-1-inside-1_380_478)"/>
<path d="M1348.81 716.266C1356.94 713.912 1365.43 718.592 1367.79 726.719L1395.76 823.309C1398.12 831.436 1393.44 839.933 1385.31 842.288L1288.73 870.269C1280.61 872.623 1272.11 867.943 1269.76 859.816L1241.78 763.226C1239.42 755.099 1244.1 746.602 1252.23 744.247L1348.81 716.266Z" stroke="#FF9900" stroke-width="10" mask="url(#path-1-inside-1_380_478)"/>
<path d="M1560.09 723.352C1570.17 758.152 1550.13 794.536 1515.34 804.617C1480.54 814.698 1444.16 794.66 1434.08 759.86C1424 725.06 1444.04 688.677 1478.83 678.595C1513.63 668.514 1550.01 688.552 1560.09 723.352Z" stroke="#FF9900" stroke-width="10" mask="url(#path-1-inside-1_380_478)"/>
<path d="M1705.44 612.943C1713.56 610.589 1722.06 615.269 1724.41 623.396L1752.39 719.986C1754.75 728.113 1750.07 736.61 1741.94 738.965L1645.36 766.946C1637.23 769.3 1628.74 764.621 1626.38 756.493L1598.4 659.903C1596.05 651.776 1600.73 643.279 1608.86 640.925L1705.44 612.943Z" stroke="#FF9900" stroke-width="10" mask="url(#path-1-inside-1_380_478)"/>
</g>
</svg>
